<svg width="62" height="62" viewBox="0 0 62 62" fill="none" xmlns="http://www.w3.org/2000/svg">
<mask id="mask0_297_2885" style="mask-type:alpha" maskUnits="userSpaceOnUse" x="0" y="0" width="62" height="62">
<path d="M30.9999 61.5065C47.7669 61.5065 61.3592 47.8925 61.3592 31.0988C61.3592 14.3051 47.7669 0.691162 30.9999 0.691162C14.2329 0.691162 0.640625 14.3051 0.640625 31.0988C0.640625 47.8925 14.2329 61.5065 30.9999 61.5065Z" fill="white"/>
</mask>
<g mask="url(#mask0_297_2885)">
<path d="M26.6627 49.8075C17.4958 47.8329 10.9902 40.0829 10.9902 31.1482C10.9902 20.5845 19.96 11.9954 30.9998 11.9954C42.0395 11.9954 51.0093 20.5845 51.0093 31.1482C51.0093 37.5654 47.658 43.5384 42.0395 47.0925" stroke="#99CC99" stroke-width="1.815" stroke-miterlimit="22.9256" stroke-linejoin="round"/>
</g>
<mask id="mask1_297_2885" style="mask-type:alpha" maskUnits="userSpaceOnUse" x="0" y="0" width="62" height="62">
<path d="M30.9999 61.5065C47.7669 61.5065 61.3592 47.8925 61.3592 31.0988C61.3592 14.3051 47.7669 0.691162 30.9999 0.691162C14.2329 0.691162 0.640625 14.3051 0.640625 31.0988C0.640625 47.8925 14.2329 61.5065 30.9999 61.5065Z" fill="white"/>
</mask>
<g mask="url(#mask1_297_2885)">
<path d="M26.6633 49.6594C17.595 47.7343 11.1387 40.0336 11.1387 31.1483C11.1387 20.6833 20.0099 12.1929 31.0004 12.1929C41.9415 12.1929 50.862 20.6833 50.862 31.1483C50.862 37.5161 47.5107 43.4397 41.9908 46.9445" stroke="#99CC99" stroke-width="1.815" stroke-miterlimit="22.9256" stroke-linejoin="round"/>
</g>
<mask id="mask2_297_2885" style="mask-type:alpha" maskUnits="userSpaceOnUse" x="0" y="0" width="62" height="62">
<path d="M30.9999 61.5065C47.7669 61.5065 61.3592 47.8925 61.3592 31.0988C61.3592 14.3051 47.7669 0.691162 30.9999 0.691162C14.2329 0.691162 0.640625 14.3051 0.640625 31.0988C0.640625 47.8925 14.2329 61.5065 30.9999 61.5065Z" fill="white"/>
</mask>
<g mask="url(#mask2_297_2885)">
<g filter="url(#filter0_d_297_2885)">
<path fill-rule="evenodd" clip-rule="evenodd" d="M15.1306 -5.9729L14.4406 34.1099C14.5392 35.6402 14.0463 36.1831 12.6171 34.8997L8.37859 30.9507L12.4692 35.9857C12.8142 36.3806 12.6171 36.9236 12.0256 37.0223L3.35156 38.0096C3.35156 38.0096 9.90641 38.4538 11.04 38.7994C12.1735 39.1449 12.3214 39.1943 11.7299 40.1816C11.1385 41.1688 8.18145 44.4268 8.18145 44.4268L13.5535 40.922C13.5535 40.922 14.342 40.2309 14.4899 41.1688C14.5392 41.6624 14.7363 67.1832 14.8842 78.9316H15.4756L15.8698 41.465C15.9684 40.1816 16.1656 40.1322 17.2991 41.0701C18.8762 42.4029 21.8333 44.9204 21.8333 44.9204L17.9891 39.9841C17.9891 39.9841 17.3484 39.3424 18.0384 38.9475C18.8762 38.3551 33.218 38.1577 33.908 38.0096C32.1338 37.8121 21.1433 37.4666 19.4183 37.0223C18.7284 36.8249 17.9398 36.9236 18.4819 35.9363C19.1226 34.9491 22.3754 31.3456 22.3754 31.3456C22.3754 31.3456 18.1369 34.4061 17.1512 34.8503C16.4613 35.2453 15.8698 35.0972 15.8698 33.8137L15.1306 -5.9729Z" fill="white"/>
</g>
</g>
<mask id="mask3_297_2885" style="mask-type:alpha" maskUnits="userSpaceOnUse" x="0" y="0" width="62" height="62">
<path d="M30.9999 61.5065C47.7669 61.5065 61.3592 47.8925 61.3592 31.0988C61.3592 14.3051 47.7669 0.691162 30.9999 0.691162C14.2329 0.691162 0.640625 14.3051 0.640625 31.0988C0.640625 47.8925 14.2329 61.5065 30.9999 61.5065Z" fill="white"/>
</mask>
<g mask="url(#mask3_297_2885)">
<path d="M12.1244 14.7102C11.7301 14.7102 11.3851 14.414 11.3851 14.0191C11.3851 13.6242 11.6808 13.2786 12.0751 13.2786C12.4694 13.2786 12.8144 13.5748 12.8144 13.9697C12.8637 14.414 12.5187 14.7102 12.1244 14.7102ZM12.7651 11.3041C12.7651 11.0573 12.7158 10.9092 12.5187 10.7611C12.4201 10.6624 12.2722 10.613 12.1244 10.613C11.7301 10.613 11.533 10.9586 11.533 11.3041C11.533 11.7978 11.878 12.3407 11.878 12.7356C11.878 13.0318 11.7301 12.8837 11.3851 13.1306C11.3358 13.1799 11.2866 13.1799 11.2373 13.1799C10.8923 13.1799 10.2516 11.9952 9.51231 11.9952C9.16732 11.9952 8.9209 12.242 8.9209 12.5876C8.9209 13.5255 10.9908 13.2786 10.9908 13.7229C10.9908 13.8216 10.9416 13.9204 10.9416 14.0191C10.9416 14.0685 10.9416 14.1672 10.9416 14.2165C10.9416 14.6608 8.9209 14.414 8.9209 15.4013C8.9209 15.6974 9.16732 15.9442 9.51231 15.9442C10.2516 15.9442 10.7937 14.7102 11.2373 14.7102C11.3358 14.7102 11.4837 14.9076 11.6808 14.957C11.7794 15.0063 11.8287 15.0063 11.8287 15.1051C11.8287 15.2532 11.7301 15.5493 11.6808 15.6974C11.5823 15.9936 11.4837 16.3392 11.4837 16.6847C11.4837 17.0302 11.7301 17.3264 12.1244 17.3264C12.5187 17.3264 12.7158 16.9809 12.7158 16.6353C12.7158 16.0923 12.3215 15.5 12.3215 15.1544C12.3215 14.8583 12.568 14.9076 12.8144 14.7102C12.8637 14.7102 12.9129 14.6608 12.9129 14.6608C13.2579 14.6608 13.9479 15.8455 14.6379 15.8455C14.9336 15.8455 15.2293 15.5987 15.2293 15.3025C15.2293 14.2659 13.1594 14.6114 13.1594 14.1178C13.1594 14.0191 13.2087 13.9697 13.2087 13.871C13.2087 13.7723 13.2087 13.7229 13.2087 13.6242C13.2087 13.2293 15.2786 13.4267 15.2786 12.4395C15.2786 12.1433 14.9829 11.8965 14.6872 11.8965C14.2929 11.8965 13.8494 12.3901 13.6029 12.6863C13.4551 12.8344 13.2579 13.1306 12.9622 13.1306C12.8144 13.1306 12.7158 12.9331 12.5187 12.8837C12.3708 12.8344 12.3708 12.8344 12.3708 12.6863C12.3708 12.4395 12.7651 11.8471 12.7651 11.3041Z" stroke="#066133" stroke-width="1.4173" stroke-miterlimit="22.9256" stroke-linecap="round" stroke-linejoin="round"/>
</g>
<mask id="mask4_297_2885" style="mask-type:alpha" maskUnits="userSpaceOnUse" x="0" y="0" width="62" height="62">
<path d="M30.9999 61.5065C47.7669 61.5065 61.3592 47.8925 61.3592 31.0988C61.3592 14.3051 47.7669 0.691162 30.9999 0.691162C14.2329 0.691162 0.640625 14.3051 0.640625 31.0988C0.640625 47.8925 14.2329 61.5065 30.9999 61.5065Z" fill="white"/>
</mask>
<g mask="url(#mask4_297_2885)">
<path fill-rule="evenodd" clip-rule="evenodd" d="M12.1244 14.7102C11.7301 14.7102 11.3851 14.414 11.3851 14.0191C11.3851 13.6242 11.6808 13.2786 12.0751 13.2786C12.4694 13.2786 12.8144 13.5748 12.8144 13.9697C12.8637 14.414 12.5187 14.7102 12.1244 14.7102ZM12.7651 11.3041C12.7651 11.0573 12.7158 10.9092 12.5187 10.7611C12.4201 10.6624 12.2722 10.613 12.1244 10.613C11.7301 10.613 11.533 10.9586 11.533 11.3041C11.533 11.7978 11.878 12.3407 11.878 12.7356C11.878 13.0318 11.7301 12.8837 11.3851 13.1306C11.3358 13.1799 11.2866 13.1799 11.2373 13.1799C10.8923 13.1799 10.2516 11.9952 9.51231 11.9952C9.16732 11.9952 8.9209 12.242 8.9209 12.5876C8.9209 13.5255 10.9908 13.2786 10.9908 13.7229C10.9908 13.8216 10.9416 13.9204 10.9416 14.0191C10.9416 14.0685 10.9416 14.1672 10.9416 14.2165C10.9416 14.6608 8.9209 14.414 8.9209 15.4013C8.9209 15.6974 9.16732 15.9442 9.51231 15.9442C10.2516 15.9442 10.7937 14.7102 11.2373 14.7102C11.3358 14.7102 11.4837 14.9076 11.6808 14.957C11.7794 15.0063 11.8287 15.0063 11.8287 15.1051C11.8287 15.2532 11.7301 15.5493 11.6808 15.6974C11.5823 15.9936 11.4837 16.3392 11.4837 16.6847C11.4837 17.0302 11.7301 17.3264 12.1244 17.3264C12.5187 17.3264 12.7158 16.9809 12.7158 16.6353C12.7158 16.0923 12.3215 15.5 12.3215 15.1544C12.3215 14.8583 12.568 14.9076 12.8144 14.7102C12.8637 14.7102 12.9129 14.6608 12.9129 14.6608C13.2579 14.6608 13.9479 15.8455 14.6379 15.8455C14.9336 15.8455 15.2293 15.5987 15.2293 15.3025C15.2293 14.2659 13.1594 14.6114 13.1594 14.1178C13.1594 14.0191 13.2087 13.9697 13.2087 13.871C13.2087 13.7723 13.2087 13.7229 13.2087 13.6242C13.2087 13.2293 15.2786 13.4267 15.2786 12.4395C15.2786 12.1433 14.9829 11.8965 14.6872 11.8965C14.2929 11.8965 13.8494 12.3901 13.6029 12.6863C13.4551 12.8344 13.2579 13.1306 12.9622 13.1306C12.8144 13.1306 12.7158 12.9331 12.5187 12.8837C12.3708 12.8344 12.3708 12.8344 12.3708 12.6863C12.3708 12.4395 12.7651 11.8471 12.7651 11.3041Z" fill="#FFFF99"/>
</g>
<mask id="mask5_297_2885" style="mask-type:alpha" maskUnits="userSpaceOnUse" x="0" y="0" width="62" height="62">
<path d="M30.9999 61.5065C47.7669 61.5065 61.3592 47.8925 61.3592 31.0988C61.3592 14.3051 47.7669 0.691162 30.9999 0.691162C14.2329 0.691162 0.640625 14.3051 0.640625 31.0988C0.640625 47.8925 14.2329 61.5065 30.9999 61.5065Z" fill="white"/>
</mask>
<g mask="url(#mask5_297_2885)">
<path fill-rule="evenodd" clip-rule="evenodd" d="M42.5815 -7.84863L43.0744 25.3233C42.9758 26.8536 43.4686 27.3966 44.8979 26.1132L49.1364 22.1641L45.0458 27.1991C44.7008 27.594 44.8979 28.137 45.4893 28.2358L54.2127 29.223C54.2127 29.223 47.6578 29.6673 46.5243 30.0128C45.3907 30.3584 45.2429 30.4077 45.8343 31.395C46.4257 32.3329 49.4321 35.6402 49.4321 35.6402L44.0601 32.0861C44.0601 32.0861 43.2715 31.395 43.1237 32.3329C43.0251 33.2708 42.4337 76.6116 42.4337 76.6116L41.6944 32.6291C41.5958 31.3456 41.3987 31.2963 40.2652 32.2342C38.688 33.567 35.731 36.0845 35.731 36.0845L39.5752 31.1482C39.5752 31.1482 40.2159 30.5065 39.5259 30.1116C38.688 29.5192 24.3462 29.3218 23.6562 29.1737C25.4305 28.9762 36.421 28.6307 38.1459 28.1864C38.8359 27.9889 39.6245 28.0877 39.0823 27.1004C38.4416 26.1132 35.1888 22.5096 35.1888 22.5096C35.1888 22.5096 39.4273 25.6195 40.413 26.0638C41.103 26.4587 41.6944 26.3106 41.6944 25.0272L42.2365 -7.84863H42.5815Z" fill="white"/>
</g>
<mask id="mask6_297_2885" style="mask-type:alpha" maskUnits="userSpaceOnUse" x="0" y="0" width="62" height="62">
<path d="M30.9999 61.5065C47.7669 61.5065 61.3592 47.8925 61.3592 31.0988C61.3592 14.3051 47.7669 0.691162 30.9999 0.691162C14.2329 0.691162 0.640625 14.3051 0.640625 31.0988C0.640625 47.8925 14.2329 61.5065 30.9999 61.5065Z" fill="white"/>
</mask>
<g mask="url(#mask6_297_2885)">
<path d="M25.874 51.1896C26.1204 50.4491 26.3669 49.6593 26.5147 48.9189C26.6626 48.1784 26.8104 47.3886 26.8597 46.6482C27.5004 48.2772 28.5354 49.5112 29.8168 50.4491C31.1475 51.3377 32.626 51.8313 34.351 51.8313C36.3224 51.8313 37.8995 51.2389 39.0823 50.1036C40.2651 48.9682 40.8565 47.3886 40.8565 45.4635C40.8565 44.1307 40.5115 43.0447 39.8216 42.2055C39.1316 41.3663 37.9487 40.6259 36.2731 39.9842L32.626 38.5033C30.5068 37.6641 28.979 36.6768 28.0425 35.5415C27.1061 34.4061 26.6133 32.9746 26.6133 31.2469C26.6133 28.7787 27.5004 26.8042 29.2747 25.2246C31.0489 23.645 33.3653 22.9045 36.1745 22.9045C37.4066 22.9045 38.5894 23.0526 39.6737 23.2994C40.8073 23.5463 41.9408 23.9412 43.0251 24.4842C42.8279 24.9284 42.5815 25.4714 42.3844 26.0144C42.1872 26.5574 41.9901 27.1498 41.7929 27.8408C41.0044 26.7055 40.068 25.9157 39.033 25.3233C37.9487 24.6816 36.7659 24.4348 35.4845 24.4348C33.8088 24.4348 32.4782 24.9284 31.5418 25.8663C30.5561 26.8042 30.0632 28.137 30.0632 29.766C30.0632 30.9507 30.4082 31.9873 31.0982 32.7772C31.7882 33.567 32.971 34.3568 34.6467 35.0479L38.2937 36.5781C40.4623 37.4666 41.9901 38.4539 42.8772 39.6386C43.8136 40.8233 44.2572 42.3042 44.2572 44.0813C44.2572 46.895 43.2715 49.1657 41.3001 50.844C39.3287 52.5717 36.7166 53.4109 33.4638 53.4109C31.9853 53.4109 30.6053 53.2135 29.3239 52.8186C28.0425 52.473 26.909 51.93 25.874 51.1896Z" stroke="#003333" stroke-width="2.126" stroke-miterlimit="22.9256" stroke-linecap="round" stroke-linejoin="round"/>
</g>
<mask id="mask7_297_2885" style="mask-type:alpha" maskUnits="userSpaceOnUse" x="0" y="0" width="62" height="62">
<path d="M30.9999 61.5065C47.7669 61.5065 61.3592 47.8925 61.3592 31.0988C61.3592 14.3051 47.7669 0.691162 30.9999 0.691162C14.2329 0.691162 0.640625 14.3051 0.640625 31.0988C0.640625 47.8925 14.2329 61.5065 30.9999 61.5065Z" fill="white"/>
</mask>
<g mask="url(#mask7_297_2885)">
<path d="M25.874 51.1896C26.1204 50.4491 26.3669 49.6593 26.5147 48.9189C26.6626 48.1784 26.8104 47.3886 26.8597 46.6482C27.5004 48.2772 28.5354 49.5112 29.8168 50.4491C31.1475 51.3377 32.626 51.8313 34.351 51.8313C36.3224 51.8313 37.8995 51.2389 39.0823 50.1036C40.2651 48.9682 40.8565 47.3886 40.8565 45.4635C40.8565 44.1307 40.5115 43.0447 39.8216 42.2055C39.1316 41.3663 37.9487 40.6259 36.2731 39.9842L32.626 38.5033C30.5068 37.6641 28.979 36.6768 28.0425 35.5415C27.1061 34.4061 26.6133 32.9746 26.6133 31.2469C26.6133 28.7787 27.5004 26.8042 29.2747 25.2246C31.0489 23.645 33.3653 22.9045 36.1745 22.9045C37.4066 22.9045 38.5894 23.0526 39.6737 23.2994C40.8073 23.5463 41.9408 23.9412 43.0251 24.4842C42.8279 24.9284 42.5815 25.4714 42.3844 26.0144C42.1872 26.5574 41.9901 27.1498 41.7929 27.8408C41.0044 26.7055 40.068 25.9157 39.033 25.3233C37.9487 24.6816 36.7659 24.4348 35.4845 24.4348C33.8088 24.4348 32.4782 24.9284 31.5417 25.8663C30.5561 26.8042 30.0632 28.137 30.0632 29.766C30.0632 30.9507 30.4082 31.9873 31.0982 32.7772C31.7882 33.567 32.971 34.3568 34.6467 35.0479L38.2937 36.5781C40.4623 37.4666 41.9901 38.4539 42.8772 39.6386C43.8136 40.8233 44.2572 42.3042 44.2572 44.0813C44.2572 46.895 43.2715 49.1657 41.3001 50.844C39.3287 52.5717 36.7166 53.4109 33.4638 53.4109C31.9853 53.4109 30.6053 53.2135 29.3239 52.8186C28.0425 52.473 26.909 51.93 25.874 51.1896Z" fill="#88BD88"/>
</g>
<mask id="mask8_297_2885" style="mask-type:alpha" maskUnits="userSpaceOnUse" x="0" y="0" width="62" height="62">
<path d="M30.9999 61.5065C47.7669 61.5065 61.3592 47.8925 61.3592 31.0988C61.3592 14.3051 47.7669 0.691162 30.9999 0.691162C14.2329 0.691162 0.640625 14.3051 0.640625 31.0988C0.640625 47.8925 14.2329 61.5065 30.9999 61.5065Z" fill="white"/>
</mask>
<g mask="url(#mask8_297_2885)">
<path d="M17.6934 40.3297C17.7919 37.8122 17.8412 35.2947 17.8905 32.8759C17.9398 30.4571 17.9891 27.9889 17.9891 25.5701C17.9891 22.8552 17.9891 20.3377 17.9398 17.9189C17.8905 15.5001 17.8412 13.1307 17.6934 10.7612C18.0384 10.8106 18.3833 10.86 18.7283 10.9093C19.0733 10.9587 19.4676 10.9587 19.8619 10.9587C20.2562 10.9587 20.6011 10.9587 20.9954 10.9093C21.3404 10.86 21.6854 10.86 21.9811 10.7612C21.8333 13.5749 21.7347 16.2899 21.6854 18.8568C21.6361 21.4237 21.5868 23.8424 21.5868 26.1131C21.5868 28.4332 21.5868 30.6052 21.6361 32.5797C21.6854 34.5542 21.7347 36.4794 21.8333 38.3058C22.1783 38.3058 22.5232 38.3552 22.9175 38.3552C23.3118 38.3552 23.9525 38.3552 24.8889 38.3552C26.8603 38.3552 28.6345 38.3058 30.1624 38.2071C31.6902 38.1084 33.0209 37.9603 34.1544 37.7135C34.1544 37.8616 34.1544 38.059 34.1544 38.3552C34.1544 38.6514 34.1544 38.8982 34.1544 39.0463C34.1544 39.1944 34.1544 39.3918 34.1544 39.688C34.1544 39.9842 34.1544 40.231 34.1544 40.3791C31.493 40.3297 29.2752 40.2803 27.5503 40.2803C25.8253 40.2803 24.4946 40.231 23.6568 40.231C22.5725 40.231 21.5376 40.231 20.5519 40.2803C19.5169 40.2803 18.5805 40.2803 17.6934 40.3297Z" stroke="#003333" stroke-width="2.126" stroke-miterlimit="22.9256" stroke-linecap="round" stroke-linejoin="round"/>
</g>
<mask id="mask9_297_2885" style="mask-type:alpha" maskUnits="userSpaceOnUse" x="0" y="0" width="62" height="62">
<path d="M30.9999 61.5065C47.7669 61.5065 61.3592 47.8925 61.3592 31.0988C61.3592 14.3051 47.7669 0.691162 30.9999 0.691162C14.2329 0.691162 0.640625 14.3051 0.640625 31.0988C0.640625 47.8925 14.2329 61.5065 30.9999 61.5065Z" fill="white"/>
</mask>
<g mask="url(#mask9_297_2885)">
<path d="M17.6934 40.3297C17.7919 37.8122 17.8412 35.2947 17.8905 32.8759C17.9398 30.4571 17.9891 27.9889 17.9891 25.5701C17.9891 22.8552 17.9891 20.3377 17.9398 17.9189C17.8905 15.5001 17.8412 13.1307 17.6934 10.7612C18.0384 10.8106 18.3833 10.86 18.7283 10.9093C19.0733 10.9587 19.4676 10.9587 19.8619 10.9587C20.2562 10.9587 20.6011 10.9587 20.9954 10.9093C21.3404 10.86 21.6854 10.86 21.9811 10.7612C21.8333 13.5749 21.7347 16.2899 21.6854 18.8568C21.6361 21.4237 21.5868 23.8424 21.5868 26.1131C21.5868 28.4332 21.5868 30.6052 21.6361 32.5797C21.6854 34.5542 21.7347 36.4794 21.8333 38.3058C22.1783 38.3058 22.5232 38.3552 22.9175 38.3552C23.3118 38.3552 23.9525 38.3552 24.8889 38.3552C26.8603 38.3552 28.6345 38.3058 30.1624 38.2071C31.6902 38.1084 33.0209 37.9603 34.1544 37.7135C34.1544 37.8616 34.1544 38.059 34.1544 38.3552C34.1544 38.6514 34.1544 38.8982 34.1544 39.0463C34.1544 39.1944 34.1544 39.3918 34.1544 39.688C34.1544 39.9842 34.1544 40.231 34.1544 40.3791C31.493 40.3297 29.2752 40.2803 27.5503 40.2803C25.8253 40.2803 24.4946 40.231 23.6568 40.231C22.5725 40.231 21.5376 40.231 20.5519 40.2803C19.5169 40.2803 18.5805 40.2803 17.6934 40.3297Z" fill="#88BD88"/>
</g>
<mask id="mask10_297_2885" style="mask-type:alpha" maskUnits="userSpaceOnUse" x="0" y="0" width="62" height="62">
<path d="M30.9999 61.5065C47.7669 61.5065 61.3592 47.8925 61.3592 31.0988C61.3592 14.3051 47.7669 0.691162 30.9999 0.691162C14.2329 0.691162 0.640625 14.3051 0.640625 31.0988C0.640625 47.8925 14.2329 61.5065 30.9999 61.5065Z" fill="white"/>
</mask>
<g mask="url(#mask10_297_2885)">
<path fill-rule="evenodd" clip-rule="evenodd" d="M41.4977 27.3966C41.6455 27.1992 41.6948 26.903 41.6948 26.4587L41.7441 23.8918C42.1384 24.0399 42.5819 24.2374 42.9762 24.4348C42.7791 24.8791 42.5327 25.4221 42.3355 25.9651C42.1384 26.5081 41.9412 27.1004 41.7441 27.7915C41.6455 27.6434 41.547 27.5447 41.4977 27.3966ZM35.6328 24.4348C35.3864 24.1387 35.2385 23.9906 35.2385 23.9906C35.2385 23.9906 35.485 24.188 35.8792 24.4348C35.7807 24.4348 35.7314 24.4348 35.6328 24.4348ZM30.1622 30.9014C28.8808 30.852 27.5994 30.8027 26.5645 30.8027C26.5645 30.7039 26.5645 30.6052 26.5645 30.4571C27.5994 30.4078 28.7823 30.3584 30.0637 30.2597C30.0637 30.4571 30.1129 30.6546 30.1622 30.9014ZM37.3085 36.1832L35.7807 37.516L36.9635 36.0352L37.3085 36.1832ZM42.9762 39.7374C42.8776 42.5017 42.8284 45.9078 42.7298 49.3138C42.5327 49.61 42.3355 49.8568 42.0891 50.1036L41.7934 38.5527C42.2369 38.8982 42.5819 39.2438 42.8776 39.6387C42.9269 39.688 42.9269 39.688 42.9762 39.7374Z" fill="#BDDEBD"/>
</g>
<mask id="mask11_297_2885" style="mask-type:alpha" maskUnits="userSpaceOnUse" x="0" y="0" width="62" height="62">
<path d="M30.9999 61.5065C47.7669 61.5065 61.3592 47.8925 61.3592 31.0988C61.3592 14.3051 47.7669 0.691162 30.9999 0.691162C14.2329 0.691162 0.640625 14.3051 0.640625 31.0988C0.640625 47.8925 14.2329 61.5065 30.9999 61.5065Z" fill="white"/>
</mask>
<g mask="url(#mask11_297_2885)">
<path d="M7.78683 22.016C7.98397 21.6705 8.08254 21.3743 8.18111 21.2262C8.2304 21.1275 8.27968 21.0288 8.32896 20.93C8.37825 20.8313 8.42753 20.6339 8.5261 20.4364C8.08254 20.387 7.68827 20.3377 7.2447 20.3377C6.80114 20.2883 6.40687 20.2883 6.01259 20.2883C6.25901 20.5845 6.55472 20.8807 6.85043 21.1768C7.14614 21.4237 7.49113 21.7198 7.78683 22.016ZM9.51179 24.7804C8.72324 23.8918 7.8854 23.0526 6.949 22.1641C6.06187 21.2756 5.12547 20.387 4.13978 19.4491C4.18906 19.3998 4.23834 19.3504 4.23834 19.2517C4.28763 19.2023 4.28763 19.153 4.33691 19.1036C4.3862 19.0542 4.3862 19.0049 4.3862 18.9555C4.43548 18.8568 4.43548 18.8074 4.48477 18.7581C5.71688 18.8568 6.949 18.9061 8.2304 18.9555C9.5118 19.0049 10.8425 19.0542 12.2224 19.0542C12.1732 19.153 12.0746 19.301 12.0253 19.3998C11.976 19.5479 11.8775 19.6466 11.8282 19.7947C11.7789 19.9428 11.6803 20.0909 11.631 20.1896C11.5817 20.3377 11.5325 20.4364 11.4832 20.5845C11.2368 20.5351 10.941 20.5351 10.6453 20.4858C10.3496 20.4364 9.90607 20.387 9.31466 20.3377C9.26537 20.4364 9.1668 20.5845 9.11752 20.7326C9.06823 20.8807 8.92038 21.0781 8.82181 21.3743C8.67396 21.6705 8.57539 21.8679 8.5261 22.016C8.47682 22.1641 8.37825 22.3122 8.32896 22.4109C8.77253 22.8058 9.11752 23.102 9.31466 23.2995C9.51179 23.4969 9.70893 23.6944 9.90607 23.8425C9.85679 23.9412 9.8075 23.9905 9.75822 24.0399C9.70893 24.0893 9.70893 24.1386 9.65965 24.188C9.61036 24.2867 9.56108 24.3854 9.51179 24.5829C9.51179 24.7803 9.51179 24.7804 9.51179 24.7804ZM8.37825 30.0622C8.18111 29.9635 7.93469 29.9141 7.73755 29.8154C7.49113 29.7167 7.2447 29.6673 6.99828 29.5686V29.4205C7.39256 29.3711 7.73755 29.2724 7.98397 29.0256C8.2304 28.7788 8.37825 28.4826 8.42753 28.137C8.47682 27.7915 8.42753 27.5447 8.2304 27.2979C8.08254 27.0511 7.83612 26.9523 7.54041 26.903C7.29399 26.8536 7.09685 26.903 6.949 27.0017C6.75186 27.1004 6.50544 27.3966 6.16044 27.8409C5.61831 28.5319 5.22404 28.9762 4.87904 29.1737C4.53405 29.3711 4.13978 29.4205 3.69621 29.3711C3.05551 29.2724 2.61195 29.0256 2.26696 28.5319C1.92197 28.0877 1.8234 27.4953 1.92197 26.8042C1.97125 26.5081 2.02054 26.2119 2.16839 25.9651C2.26696 25.7182 2.41482 25.4714 2.61195 25.274C2.75981 25.5208 2.95695 25.5702 3.15408 25.6689C3.35122 25.7676 3.49908 25.817 3.69621 25.8663V25.9651C3.40051 26.0144 3.1048 26.1625 2.90766 26.36C2.71052 26.5574 2.56267 26.8536 2.51338 27.1498C2.4641 27.446 2.51338 27.6928 2.66124 27.8902C2.80909 28.0877 3.00623 28.1864 3.30194 28.2358C3.54836 28.2851 3.7455 28.2358 3.89335 28.0877C4.09049 27.9889 4.28763 27.6928 4.63262 27.2979C4.68191 27.1991 4.78048 27.0511 4.92833 26.903C5.27332 26.4093 5.51974 26.1132 5.71688 25.9651C5.91402 25.817 6.16044 25.7182 6.40687 25.6689C6.65329 25.6195 6.89971 25.6195 7.19542 25.6195C7.8854 25.7182 8.42753 26.0144 8.77253 26.5081C9.11752 27.0017 9.26537 27.6434 9.1668 28.3839C9.11752 28.7788 9.01895 29.1243 8.92038 29.3711C8.72324 29.6673 8.57539 29.9141 8.37825 30.0622ZM6.89971 34.1593L5.81545 34.2581L5.61831 31.8393L6.70257 31.7405L6.89971 34.1593ZM12.0746 43.1928C11.5325 43.2915 11.0889 43.3902 10.7439 43.4889C10.3496 43.5877 10.1032 43.637 9.95536 43.6864L5.17475 44.8218C5.17475 44.7724 5.12547 44.6737 5.12547 44.6243C5.12547 44.5749 5.07618 44.4762 5.0269 44.4268C4.97761 44.3281 4.97761 44.2788 4.92833 44.2294C4.87904 44.18 4.87904 44.0813 4.82976 44.0319C5.47046 43.3902 6.06187 42.7979 6.65329 42.1561C7.2447 41.5144 7.83612 40.8727 8.42753 40.231C7.5897 40.1323 6.70257 40.0335 5.81545 39.9842C4.92833 39.9348 3.99192 39.8854 3.1048 39.8361C3.1048 39.7867 3.05551 39.688 3.05551 39.6386C2.95695 39.4905 2.95695 39.3918 2.90766 39.3425C2.85838 39.2437 2.85838 39.1944 2.80909 39.145C2.75981 39.0956 2.75981 38.9969 2.71052 38.9475L7.09685 36.6768C7.5897 36.43 7.98397 36.2326 8.2304 36.0845C8.5261 35.9364 8.72324 35.7883 8.96967 35.6402C9.01895 35.7883 9.06823 35.9364 9.11752 36.0845C9.1668 36.2326 9.21609 36.3313 9.26537 36.4794C9.31466 36.5781 9.36394 36.7262 9.41323 36.8249C9.46251 36.973 9.56108 37.0718 9.61036 37.2198L9.51179 37.2692C8.8711 37.5654 8.42753 37.7135 8.27968 37.8122L5.32261 39.2437C6.16044 39.3425 6.99828 39.3918 7.8854 39.4905C8.77253 39.5399 9.65965 39.6386 10.5961 39.688C10.5961 39.688 10.5961 39.7374 10.5961 39.7867C10.5961 39.8361 10.5961 39.8361 10.6453 39.9348C10.6453 39.9842 10.6946 40.0335 10.6946 40.0335L10.7439 40.0829C10.1032 40.7246 9.5118 41.3663 8.92038 41.9587C8.32897 42.5511 7.83612 43.1434 7.29399 43.7358L9.36394 43.1928H9.46251C10.5468 42.8966 11.286 42.6991 11.7296 42.5511C11.7296 42.6498 11.7789 42.6991 11.7789 42.7485C11.7789 42.7979 11.8282 42.8966 11.8282 42.946C11.8282 42.9953 11.8775 43.0447 11.9267 43.1434C11.976 43.094 12.0253 43.1434 12.0746 43.1928ZM14.8345 45.809C14.4895 46.0558 14.0953 46.352 13.6517 46.6482C13.2574 46.9444 12.7153 47.3886 12.0746 47.9316C11.4339 48.4253 10.941 48.8695 10.5468 49.2151C10.1525 49.5606 9.8075 49.9061 9.46251 50.2023C9.36394 50.1036 9.31466 49.9555 9.21609 49.8568C9.11752 49.7581 9.01895 49.61 8.92038 49.5112C8.82181 49.4125 8.72324 49.3138 8.62467 49.2151C8.5261 49.1163 8.42753 49.0176 8.27968 48.9189C8.62467 48.6721 9.01895 48.3759 9.46251 48.0304C9.90607 47.6848 10.3989 47.2899 11.0396 46.7963C11.6803 46.2533 12.2224 45.809 12.6167 45.4635C13.011 45.1179 13.356 44.8218 13.6517 44.5256C13.7503 44.6737 13.8488 44.7724 13.9474 44.8711C14.046 44.9698 14.1445 45.0686 14.1938 45.1673C14.2924 45.266 14.391 45.3647 14.4895 45.4635C14.5881 45.6116 14.736 45.7103 14.8345 45.809ZM19.2701 49.3138C18.9744 49.6593 18.6294 50.0542 18.2845 50.4491C17.9395 50.844 17.5452 51.387 17.1016 51.9794C16.6581 52.5718 16.3131 53.0654 15.9681 53.5097C15.6724 53.9539 15.3767 54.3982 15.1302 54.7931C15.0317 54.6944 14.9331 54.5956 14.7852 54.4969C14.6867 54.3982 14.5388 54.2995 14.4403 54.2501C14.3417 54.1514 14.1938 54.102 14.0953 54.0033C13.9474 53.9539 13.8488 53.8552 13.701 53.8058C13.9967 53.4603 14.3417 53.0654 14.6867 52.6211C15.0317 52.1768 15.4259 51.6832 15.8695 51.0909C16.2638 50.5479 16.6088 50.1036 16.8552 49.7581C17.1016 49.4125 17.2988 49.1163 17.4466 48.8695C17.1016 48.6227 16.7566 48.4253 16.4116 48.2278C16.0666 48.0304 15.7709 47.8329 15.4259 47.6848C15.4752 47.6354 15.5245 47.5861 15.5738 47.5367C15.6231 47.4874 15.6724 47.438 15.7217 47.3886C15.7709 47.3393 15.8202 47.2899 15.8202 47.2405C15.8695 47.1912 15.9188 47.1418 15.9188 47.0431C16.3131 47.3393 16.6088 47.5861 16.9045 47.7835C17.1509 47.981 17.3973 48.1291 17.6437 48.2772C17.8409 48.4253 18.0873 48.5733 18.3337 48.7214C18.6294 48.9189 18.9251 49.1163 19.2701 49.3138Z" stroke="#066133" stroke-width="1.4173" stroke-miterlimit="22.9256" stroke-linecap="round" stroke-linejoin="round"/>
</g>
<mask id="mask12_297_2885" style="mask-type:alpha" maskUnits="userSpaceOnUse" x="0" y="0" width="62" height="62">
<path d="M30.9999 61.5065C47.7669 61.5065 61.3592 47.8925 61.3592 31.0988C61.3592 14.3051 47.7669 0.691162 30.9999 0.691162C14.2329 0.691162 0.640625 14.3051 0.640625 31.0988C0.640625 47.8925 14.2329 61.5065 30.9999 61.5065Z" fill="white"/>
</mask>
<g mask="url(#mask12_297_2885)">
<path d="M7.78683 22.016C7.98397 21.6705 8.08254 21.3743 8.18111 21.2262C8.2304 21.1275 8.27968 21.0288 8.32896 20.93C8.37825 20.8313 8.42753 20.6339 8.5261 20.4364C8.08254 20.387 7.68827 20.3377 7.2447 20.3377C6.80114 20.2883 6.40687 20.2883 6.01259 20.2883C6.25901 20.5845 6.55472 20.8807 6.85043 21.1768C7.14613 21.4237 7.49113 21.7198 7.78683 22.016ZM9.51179 24.7804C8.72324 23.8918 7.8854 23.0526 6.949 22.1641C6.06187 21.2756 5.12547 20.387 4.13978 19.4491C4.18906 19.3998 4.23834 19.3504 4.23834 19.2517C4.28763 19.2023 4.28763 19.153 4.33691 19.1036C4.3862 19.0542 4.3862 19.0049 4.3862 18.9555C4.43548 18.8568 4.43548 18.8074 4.48477 18.7581C5.71688 18.8568 6.949 18.9061 8.2304 18.9555C9.5118 19.0049 10.8425 19.0542 12.2224 19.0542C12.1732 19.153 12.0746 19.301 12.0253 19.3998C11.976 19.5479 11.8775 19.6466 11.8282 19.7947C11.7789 19.9428 11.6803 20.0909 11.631 20.1896C11.5817 20.3377 11.5325 20.4364 11.4832 20.5845C11.2368 20.5351 10.941 20.5351 10.6453 20.4858C10.3496 20.4364 9.90607 20.387 9.31466 20.3377C9.26537 20.4364 9.1668 20.5845 9.11752 20.7326C9.06823 20.8807 8.92038 21.0781 8.82181 21.3743C8.67396 21.6705 8.57539 21.8679 8.5261 22.016C8.47682 22.1641 8.37825 22.3122 8.32896 22.4109C8.77253 22.8058 9.11752 23.102 9.31466 23.2995C9.5118 23.4969 9.70893 23.6944 9.90607 23.8425C9.85679 23.9412 9.8075 23.9905 9.75822 24.0399C9.70893 24.0893 9.70893 24.1386 9.65965 24.188C9.61036 24.2867 9.56108 24.3854 9.51179 24.5829C9.51179 24.7803 9.51179 24.7804 9.51179 24.7804ZM8.37825 30.0622C8.18111 29.9635 7.93469 29.9141 7.73755 29.8154C7.49113 29.7167 7.2447 29.6673 6.99828 29.5686V29.4205C7.39256 29.3711 7.73755 29.2724 7.98397 29.0256C8.2304 28.7788 8.37825 28.4826 8.42753 28.137C8.47682 27.7915 8.42753 27.5447 8.2304 27.2979C8.08254 27.0511 7.83612 26.9523 7.54041 26.903C7.29399 26.8536 7.09685 26.903 6.949 27.0017C6.75186 27.1004 6.50544 27.3966 6.16044 27.8409C5.61831 28.5319 5.22404 28.9762 4.87904 29.1737C4.53405 29.3711 4.13978 29.4205 3.69621 29.3711C3.05551 29.2724 2.61195 29.0256 2.26696 28.5319C1.92197 28.0877 1.8234 27.4953 1.92197 26.8042C1.97125 26.5081 2.02054 26.2119 2.16839 25.9651C2.26696 25.7182 2.41482 25.4714 2.61195 25.274C2.75981 25.5208 2.95695 25.5702 3.15408 25.6689C3.35122 25.7676 3.49908 25.817 3.69621 25.8663V25.9651C3.40051 26.0144 3.1048 26.1625 2.90766 26.36C2.71052 26.5574 2.56267 26.8536 2.51338 27.1498C2.4641 27.446 2.51338 27.6928 2.66124 27.8902C2.80909 28.0877 3.00623 28.1864 3.30194 28.2358C3.54836 28.2851 3.7455 28.2358 3.89335 28.0877C4.09049 27.9889 4.28763 27.6928 4.63262 27.2979C4.68191 27.1991 4.78048 27.0511 4.92833 26.903C5.27332 26.4093 5.51974 26.1132 5.71688 25.9651C5.91402 25.817 6.16044 25.7182 6.40687 25.6689C6.65329 25.6195 6.89971 25.6195 7.19542 25.6195C7.8854 25.7182 8.42753 26.0144 8.77253 26.5081C9.11752 27.0017 9.26537 27.6434 9.1668 28.3839C9.11752 28.7788 9.01895 29.1243 8.92038 29.3711C8.72324 29.6673 8.57539 29.9141 8.37825 30.0622ZM6.89971 34.1593L5.81545 34.2581L5.61831 31.8393L6.70257 31.7405L6.89971 34.1593ZM12.0746 43.1928C11.5325 43.2915 11.0889 43.3902 10.7439 43.489C10.3496 43.5877 10.1032 43.637 9.95536 43.6864L5.17475 44.8218C5.17475 44.7724 5.12547 44.6737 5.12547 44.6243C5.12547 44.5749 5.07618 44.4762 5.0269 44.4268C4.97761 44.3281 4.97761 44.2788 4.92833 44.2294C4.87904 44.18 4.87904 44.0813 4.82976 44.0319C5.47046 43.3902 6.06187 42.7979 6.65329 42.1561C7.2447 41.5144 7.83612 40.8727 8.42753 40.231C7.5897 40.1323 6.70257 40.0335 5.81545 39.9842C4.92833 39.9348 3.99192 39.8854 3.1048 39.8361C3.1048 39.7867 3.05551 39.688 3.05551 39.6386C2.95695 39.4905 2.95695 39.3918 2.90766 39.3425C2.85838 39.2437 2.85838 39.1944 2.80909 39.145C2.75981 39.0956 2.75981 38.9969 2.71052 38.9475L7.09685 36.6768C7.5897 36.43 7.98397 36.2326 8.2304 36.0845C8.5261 35.9364 8.72324 35.7883 8.96967 35.6402C9.01895 35.7883 9.06823 35.9364 9.11752 36.0845C9.1668 36.2326 9.21609 36.3313 9.26537 36.4794C9.31466 36.5781 9.36394 36.7262 9.41323 36.8249C9.46251 36.973 9.56108 37.0718 9.61036 37.2198L9.51179 37.2692C8.8711 37.5654 8.42753 37.7135 8.27968 37.8122L5.32261 39.2437C6.16044 39.3425 6.99828 39.3918 7.8854 39.4905C8.77253 39.5399 9.65965 39.6386 10.5961 39.688C10.5961 39.688 10.5961 39.7374 10.5961 39.7867C10.5961 39.8361 10.5961 39.8361 10.6453 39.9348C10.6453 39.9842 10.6946 40.0335 10.6946 40.0335L10.7439 40.0829C10.1032 40.7246 9.5118 41.3663 8.92038 41.9587C8.32897 42.5511 7.83612 43.1434 7.29399 43.7358L9.36394 43.1928H9.46251C10.5468 42.8966 11.286 42.6991 11.7296 42.5511C11.7296 42.6498 11.7789 42.6991 11.7789 42.7485C11.7789 42.7979 11.8282 42.8966 11.8282 42.946C11.8282 42.9953 11.8775 43.0447 11.9267 43.1434C11.976 43.094 12.0253 43.1434 12.0746 43.1928ZM14.8345 45.809C14.4895 46.0558 14.0953 46.352 13.6517 46.6482C13.2574 46.9444 12.7153 47.3886 12.0746 47.9316C11.4339 48.4253 10.941 48.8695 10.5468 49.2151C10.1525 49.5606 9.8075 49.9061 9.46251 50.2023C9.36394 50.1036 9.31466 49.9555 9.21609 49.8568C9.11752 49.7581 9.01895 49.61 8.92038 49.5112C8.82181 49.4125 8.72324 49.3138 8.62467 49.2151C8.5261 49.1163 8.42753 49.0176 8.27968 48.9189C8.62467 48.6721 9.01895 48.3759 9.46251 48.0304C9.90607 47.6848 10.3989 47.2899 11.0396 46.7963C11.6803 46.2533 12.2224 45.809 12.6167 45.4635C13.011 45.1179 13.356 44.8218 13.6517 44.5256C13.7503 44.6737 13.8488 44.7724 13.9474 44.8711C14.046 44.9698 14.1445 45.0686 14.1938 45.1673C14.2924 45.266 14.391 45.3647 14.4895 45.4635C14.5881 45.6116 14.736 45.7103 14.8345 45.809ZM19.2701 49.3138C18.9744 49.6593 18.6294 50.0542 18.2845 50.4491C17.9395 50.844 17.5452 51.387 17.1016 51.9794C16.6581 52.5718 16.3131 53.0654 15.9681 53.5097C15.6724 53.9539 15.3767 54.3982 15.1302 54.7931C15.0317 54.6944 14.9331 54.5956 14.7852 54.4969C14.6867 54.3982 14.5388 54.2995 14.4403 54.2501C14.3417 54.1514 14.1938 54.102 14.0953 54.0033C13.9474 53.9539 13.8488 53.8552 13.701 53.8058C13.9967 53.4603 14.3417 53.0654 14.6867 52.6211C15.0317 52.1768 15.4259 51.6832 15.8695 51.0909C16.2638 50.5479 16.6088 50.1036 16.8552 49.7581C17.1016 49.4125 17.2988 49.1163 17.4466 48.8695C17.1016 48.6227 16.7566 48.4253 16.4116 48.2278C16.0666 48.0304 15.7709 47.8329 15.4259 47.6848C15.4752 47.6354 15.5245 47.5861 15.5738 47.5367C15.6231 47.4874 15.6724 47.438 15.7217 47.3886C15.7709 47.3393 15.8202 47.2899 15.8202 47.2405C15.8695 47.1912 15.9188 47.1418 15.9188 47.0431C16.3131 47.3393 16.6088 47.5861 16.9045 47.7835C17.1509 47.981 17.3973 48.1291 17.6438 48.2772C17.8409 48.4253 18.0873 48.5733 18.3337 48.7214C18.6294 48.9189 18.9251 49.1163 19.2701 49.3138Z" fill="#FFFF99"/>
</g>
<mask id="mask13_297_2885" style="mask-type:alpha" maskUnits="userSpaceOnUse" x="0" y="0" width="62" height="62">
<path d="M30.9999 61.5065C47.7669 61.5065 61.3592 47.8925 61.3592 31.0988C61.3592 14.3051 47.7669 0.691162 30.9999 0.691162C14.2329 0.691162 0.640625 14.3051 0.640625 31.0988C0.640625 47.8925 14.2329 61.5065 30.9999 61.5065Z" fill="white"/>
</mask>
<g mask="url(#mask13_297_2885)">
<path fill-rule="evenodd" clip-rule="evenodd" d="M18.0378 40.3297C19.1714 39.7373 33.2175 39.5892 33.8582 39.3918C32.0839 39.1943 21.0935 38.8488 19.3685 38.4045C18.6785 38.2071 17.89 38.3058 18.4321 37.3185C18.8757 36.6274 20.6006 34.6529 21.5863 33.5669V33.2708C20.6006 33.9618 18.8264 35.2453 17.7914 35.887C17.7421 37.3679 17.6928 38.8488 17.6436 40.3297H18.0378Z" fill="#BDDEBD"/>
</g>
<mask id="mask14_297_2885" style="mask-type:alpha" maskUnits="userSpaceOnUse" x="0" y="0" width="62" height="62">
<path d="M53.9426 51.0157C64.9002 38.3077 63.4952 19.1065 50.8046 8.12881C38.114 -2.8489 18.9434 -1.44616 7.98588 11.2619C-2.97165 23.97 -1.56672 43.1712 11.1239 54.1489C23.8145 65.1266 42.9851 63.7238 53.9426 51.0157Z" fill="white"/>
</mask>
<g mask="url(#mask14_297_2885)">
<path d="M54.012 51.0106C64.9695 38.3025 63.5646 19.1014 50.874 8.12368C38.1834 -2.85403 19.0128 -1.45128 8.05522 11.2568C-2.90232 23.9649 -1.49738 43.166 11.1932 54.1438C23.8838 65.1215 43.0544 63.7187 54.012 51.0106Z" stroke="#006633" stroke-width="1.0757" stroke-miterlimit="22.9256" stroke-linejoin="round"/>
</g>
<mask id="mask15_297_2885" style="mask-type:alpha" maskUnits="userSpaceOnUse" x="0" y="0" width="62" height="62">
<path d="M30.9999 61.5065C47.7669 61.5065 61.3592 47.8925 61.3592 31.0988C61.3592 14.3051 47.7669 0.691162 30.9999 0.691162C14.2329 0.691162 0.640625 14.3051 0.640625 31.0988C0.640625 47.8925 14.2329 61.5065 30.9999 61.5065Z" fill="white"/>
</mask>
<g mask="url(#mask15_297_2885)">
<path d="M48.9889 47.2406C48.7425 47.4381 48.5946 47.5862 48.4961 47.6849C48.4468 47.7343 48.3975 47.7836 48.2989 47.833C48.2496 47.8824 48.1511 47.9811 48.0032 48.1292C48.2989 48.2773 48.5453 48.4254 48.841 48.5241C49.1368 48.6722 49.3832 48.7709 49.6789 48.8696C49.5803 48.6228 49.4817 48.3266 49.3832 48.0798C49.2353 47.833 49.0875 47.5368 48.9889 47.2406ZM48.5946 44.9699C48.8903 45.7597 49.186 46.5496 49.531 47.3887C49.876 48.2279 50.221 49.0671 50.6646 49.9062C50.6153 49.9556 50.566 49.9556 50.566 50.005C50.5167 50.0543 50.4674 50.0543 50.4674 50.1037C50.4182 50.1531 50.4182 50.1531 50.3689 50.2024C50.3196 50.2518 50.3196 50.2518 50.2703 50.3012C49.4817 49.9556 48.6932 49.5607 47.8554 49.2152C47.0175 48.8696 46.1304 48.4747 45.2433 48.1292C45.3418 48.0798 45.3911 48.0304 45.4897 47.9317C45.5883 47.8824 45.6376 47.7836 45.7361 47.7343C45.8347 47.6355 45.884 47.5862 45.9825 47.4875C46.0318 47.4381 46.1304 47.3394 46.1797 47.29C46.3275 47.3887 46.5247 47.4875 46.7218 47.5862C46.919 47.6849 47.2147 47.833 47.5597 48.0305C47.6582 47.9811 47.7075 47.8824 47.8061 47.833C47.9046 47.7343 48.0032 47.6355 48.2004 47.4875C48.3975 47.3394 48.4961 47.1913 48.5946 47.1419C48.6932 47.0432 48.7425 46.9938 48.841 46.8951C48.6439 46.5002 48.4961 46.204 48.4468 46.0559C48.3482 45.8585 48.2989 45.7104 48.2004 45.5623C48.2496 45.5129 48.2989 45.5129 48.3482 45.4636C48.3975 45.4142 48.4468 45.4142 48.4468 45.3648C48.4468 45.1674 48.4961 45.118 48.5946 44.9699ZM55.2973 44.2295C55.248 44.2789 55.1495 44.3776 55.1002 44.4269C55.0509 44.5257 54.9523 44.575 54.9031 44.6738C54.8538 44.7725 54.7552 44.8712 54.7059 44.9206C54.6566 45.0193 54.6073 45.0687 54.5581 45.1674C54.2624 44.9206 53.9666 44.6738 53.5724 44.4269C53.2274 44.1801 52.8331 43.884 52.3895 43.5878C52.0445 43.341 51.7981 43.1929 51.6503 43.0941C51.5024 42.9954 51.3546 42.9461 51.2067 42.9461C51.0096 42.8967 50.7631 42.8967 50.566 42.9954C50.3689 43.0941 50.1717 43.2422 50.0239 43.4397C49.876 43.6371 49.7775 43.8346 49.7282 44.0814C49.6789 44.2789 49.7282 44.4763 49.7775 44.6738C49.8267 44.8219 49.9746 44.9699 50.1224 45.1674C50.2703 45.3155 50.6153 45.5623 51.0589 45.8585C51.4531 46.1053 51.7981 46.3521 52.0938 46.5496C52.4388 46.747 52.7345 46.9445 53.0302 47.0926C52.981 47.1419 52.9317 47.1913 52.9317 47.2406C52.8824 47.29 52.8331 47.3394 52.8331 47.3887C52.7838 47.4381 52.7345 47.4875 52.7345 47.5368C52.6852 47.5862 52.6852 47.6355 52.636 47.6849C52.3895 47.4875 52.1431 47.29 51.946 47.1419C51.7488 46.9938 51.5517 46.8457 51.4038 46.747C51.3053 46.6976 51.1574 46.5989 50.9603 46.4508C50.7631 46.3027 50.6153 46.204 50.5167 46.1547C50.1224 45.9078 49.8267 45.661 49.6789 45.4636C49.4818 45.2661 49.3832 45.0687 49.3339 44.8219C49.2846 44.575 49.2846 44.2789 49.3339 43.9827C49.4325 43.6865 49.5803 43.3903 49.7775 43.0941C50.0239 42.7486 50.3196 42.5018 50.566 42.3043C50.8617 42.1069 51.1081 42.0575 51.4038 42.0575C51.601 42.0575 51.8474 42.1069 52.0938 42.2056C52.3403 42.3043 52.6852 42.5018 53.1781 42.8473L53.7202 43.1929C54.1145 43.4397 54.4102 43.6371 54.6566 43.7852C54.8538 43.9827 55.0509 44.1308 55.2973 44.2295ZM51.601 41.0703C51.6503 40.6754 51.6996 40.2805 51.7981 39.9349C51.8967 39.5894 51.9953 39.2932 52.0938 38.9476C52.3895 38.2072 52.8331 37.7136 53.4738 37.4668C54.0652 37.2199 54.7552 37.2199 55.4945 37.5161C56.2337 37.8123 56.7759 38.2566 57.0223 38.8983C57.2687 39.54 57.2194 40.2311 56.8744 41.0209C56.7266 41.3664 56.5787 41.6626 56.3816 41.9094C56.1844 42.1562 55.9873 42.3537 55.7409 42.5511C55.593 42.4524 55.4945 42.3537 55.3466 42.255C55.248 42.1562 55.1002 42.1069 55.0016 42.0575V42.0082C55.3466 41.9588 55.6423 41.8601 55.8887 41.6626C56.1352 41.4652 56.3323 41.2183 56.4309 40.9222C56.628 40.4285 56.628 39.9843 56.3816 39.5894C56.1352 39.1945 55.6916 38.8489 55.0509 38.6021C54.4102 38.3553 53.8188 38.3059 53.3752 38.454C52.9317 38.6021 52.5867 38.8983 52.3895 39.3919C52.3403 39.54 52.291 39.6881 52.2417 39.8362C52.1924 39.9843 52.1924 40.083 52.1924 40.2311C52.291 40.2804 52.3895 40.3298 52.4881 40.3792C52.5867 40.4285 52.6852 40.4779 52.7838 40.5273C52.981 40.5766 53.1781 40.6754 53.3259 40.7247C53.4738 40.7741 53.6709 40.8234 53.8188 40.8728C53.7695 40.9715 53.7202 41.0209 53.6709 41.1196C53.6217 41.2183 53.5724 41.3171 53.5231 41.4158C53.4738 41.5145 53.4738 41.6133 53.4245 41.6626C53.3752 41.7613 53.3752 41.8107 53.3752 41.9094C53.2274 41.8601 53.0795 41.7613 52.8824 41.712C52.6852 41.6626 52.5374 41.5639 52.291 41.4652C52.0938 41.3664 51.8967 41.3171 51.7981 41.2677C51.7981 41.1196 51.6996 41.1196 51.601 41.0703ZM55.593 34.0607C55.5438 34.3569 55.4945 34.5543 55.4452 34.7024C55.4452 34.7518 55.3959 34.8505 55.3959 34.9492C55.3959 35.048 55.3466 35.1467 55.3466 35.3441C55.6423 35.2948 55.938 35.2454 56.2337 35.1961C56.5294 35.1467 56.8251 35.0973 57.1209 34.9986C56.8744 34.8505 56.628 34.7024 56.3816 34.5543C56.1352 34.3569 55.8395 34.2088 55.593 34.0607ZM53.8681 32.4317C54.6073 32.9254 55.3466 33.3696 56.1352 33.8139C56.9237 34.2582 57.7616 34.7518 58.5994 35.1961C58.5994 35.2454 58.5501 35.2948 58.5501 35.3441C58.5501 35.3935 58.5501 35.4429 58.5008 35.4922C58.5008 35.5416 58.5008 35.591 58.5008 35.6403C58.5008 35.6897 58.5008 35.739 58.5008 35.739C57.663 35.8871 56.7759 36.0352 55.8395 36.2327C54.9523 36.4301 54.0159 36.6276 53.0302 36.825C53.0795 36.7263 53.0795 36.6276 53.1288 36.5289C53.1288 36.4301 53.1781 36.3314 53.1781 36.2327C53.1781 36.134 53.2274 36.0352 53.2274 35.9365C53.2274 35.8378 53.2274 35.739 53.2767 35.6403C53.4738 35.6403 53.6709 35.591 53.8681 35.5416C54.0652 35.4922 54.4102 35.4922 54.8045 35.3935C54.8045 35.2948 54.8538 35.1961 54.8538 35.0973C54.8538 34.9986 54.9031 34.8011 54.9523 34.6037C55.0016 34.3569 55.0016 34.2088 55.0509 34.1101C55.0509 34.0113 55.1002 33.9126 55.1002 33.8139C54.7059 33.6164 54.4102 33.4683 54.2131 33.3696C54.0159 33.2709 53.8681 33.1722 53.7202 33.0734C53.7202 33.0241 53.7695 32.9747 53.7695 32.9254C53.7695 32.876 53.7695 32.8266 53.8188 32.7773C53.8681 32.6785 53.8681 32.5798 53.8681 32.4317ZM53.3259 26.1133C53.6709 26.1133 54.0652 26.0639 54.4595 26.0145C54.8538 25.9652 55.2973 25.9158 55.7902 25.8664C56.2337 25.8171 56.6773 25.7677 57.1209 25.669C57.5644 25.6196 57.9587 25.5209 58.353 25.4715C58.353 25.5209 58.353 25.5703 58.353 25.669C58.353 25.7183 58.353 25.8171 58.353 25.8664C58.353 25.9158 58.353 26.0145 58.4023 26.0639C58.4023 26.1133 58.4515 26.1626 58.4515 26.2613C57.9587 26.8043 57.4658 27.3473 56.973 27.8903C56.4802 28.4333 55.9873 29.0257 55.4945 29.5687L56.3816 29.4699C56.5294 29.4699 56.8744 29.4206 57.318 29.3712C57.7616 29.3219 58.3037 29.2231 58.8951 29.1738C58.8951 29.2231 58.8951 29.2725 58.8951 29.3219C58.8951 29.3712 58.8951 29.4206 58.8951 29.4699C58.8951 29.5193 58.8951 29.5687 58.9444 29.618C58.9444 29.6674 58.9444 29.7168 58.9937 29.7661C58.7965 29.7661 58.4515 29.8155 58.008 29.8155C57.5644 29.8648 56.8744 29.9636 55.8887 30.0623L55.4945 30.1117C55.1002 30.161 54.8045 30.2104 54.5581 30.2597C54.3116 30.3091 54.1145 30.3585 53.9666 30.3585C53.9666 30.3091 53.9666 30.2597 53.9666 30.2104C53.9666 30.161 53.9666 30.1117 53.9666 30.0623C53.9666 30.0129 53.9666 29.9636 53.9174 29.9142C53.9174 29.8648 53.8681 29.8155 53.8681 29.7661C54.3116 29.2725 54.8045 28.7295 55.3466 28.1865C55.8395 27.5941 56.4309 27.0018 57.0223 26.3107L54.8538 26.5575C54.7552 26.5575 54.6073 26.6069 54.3609 26.6069C54.1145 26.6562 53.8188 26.7056 53.4738 26.755C53.4738 26.7056 53.4738 26.6562 53.4738 26.6069C53.4738 26.5575 53.4738 26.5082 53.4738 26.4588C53.4738 26.4094 53.4738 26.3601 53.4245 26.3107C53.3752 26.212 53.3259 26.1626 53.3259 26.1133ZM52.7345 24.3855C53.0795 24.3362 53.3752 24.2375 53.7695 24.1881C54.1145 24.0894 54.6073 23.9906 55.1988 23.8426C55.7409 23.6945 56.2337 23.5464 56.628 23.4476C57.0223 23.3489 57.318 23.2008 57.6137 23.1021C57.6137 23.2008 57.663 23.2996 57.663 23.3983C57.663 23.497 57.7123 23.5957 57.7616 23.6945C57.8108 23.7932 57.8108 23.8919 57.8601 23.9906C57.9094 24.0894 57.9587 24.1881 57.9587 24.2868C57.663 24.3362 57.318 24.4349 56.9237 24.5336C56.5294 24.6324 56.0859 24.7311 55.4945 24.8792C54.9031 25.0273 54.4102 25.1754 54.0652 25.2741C53.7202 25.3728 53.3752 25.4715 53.0795 25.5703C53.0795 25.4715 53.0302 25.3728 53.0302 25.2741C53.0302 25.1754 52.981 25.0766 52.981 24.9779C52.9317 24.8792 52.9317 24.7805 52.8824 24.6817C52.8331 24.583 52.7838 24.4843 52.7345 24.3855ZM51.5517 21.0289C51.6996 21.0289 51.8967 20.9795 52.0445 20.9301C52.1924 20.8808 52.3895 20.8808 52.5867 20.8314L52.636 20.9301C52.3895 21.0782 52.2417 21.2757 52.1924 21.5225C52.1431 21.7693 52.1431 21.9668 52.2417 22.2136C52.3403 22.411 52.4881 22.5591 52.6852 22.6578C52.8824 22.7566 53.0795 22.7072 53.2767 22.6578C53.4245 22.6085 53.5231 22.5097 53.6217 22.3617C53.6709 22.2136 53.7202 21.9668 53.7695 21.5719C53.8188 20.9301 53.9174 20.5352 54.0159 20.2884C54.1638 20.0416 54.3609 19.8441 54.6566 19.7454C55.0509 19.548 55.4452 19.548 55.8395 19.7454C56.2337 19.8935 56.5294 20.239 56.7266 20.6833C56.8251 20.8808 56.8744 21.0782 56.9237 21.2757C56.973 21.4731 56.973 21.6706 56.9237 21.868C56.7759 21.868 56.628 21.9174 56.4802 21.9174C56.3323 21.9174 56.1845 21.9668 56.0859 21.9668L56.0366 21.9174C56.1845 21.7693 56.3323 21.5719 56.3323 21.3744C56.3816 21.1769 56.3323 20.9795 56.2337 20.782C56.1352 20.5846 56.0366 20.4859 55.8395 20.3871C55.6916 20.3378 55.4945 20.3378 55.3466 20.3871C55.1988 20.4365 55.1002 20.5352 55.0016 20.6833C54.9523 20.8314 54.9031 21.0782 54.8538 21.4238C54.8538 21.5225 54.8538 21.6212 54.8538 21.7693C54.8538 22.2136 54.8045 22.4604 54.7552 22.6085C54.7059 22.7566 54.6073 22.9047 54.4595 23.0527C54.3609 23.1515 54.1638 23.2502 54.0159 23.3489C53.5724 23.5464 53.1288 23.5464 52.6852 23.3983C52.291 23.2008 51.946 22.9047 51.6996 22.411C51.601 22.1642 51.5024 21.9174 51.4531 21.7199C51.5024 21.4238 51.5024 21.2263 51.5517 21.0289ZM50.0239 15.8951C50.221 16.1419 50.3196 16.29 50.4182 16.3887C50.4674 16.4381 50.5167 16.4875 50.566 16.5862C50.6153 16.6355 50.7139 16.7343 50.8124 16.8824C50.9603 16.6355 51.1574 16.3887 51.3053 16.1419C51.4531 15.8951 51.601 15.6483 51.7488 15.4015C51.4531 15.4508 51.1574 15.5496 50.911 15.5989C50.6153 15.6976 50.3196 15.7964 50.0239 15.8951ZM47.6089 16.0432C48.4468 15.8457 49.3339 15.5989 50.221 15.3521C51.1081 15.1053 51.9953 14.8091 52.9317 14.5129C52.981 14.5623 52.981 14.6117 53.0302 14.6117C53.0795 14.661 53.0795 14.7104 53.1288 14.7104C53.1781 14.7597 53.1781 14.7597 53.2274 14.8091C53.2767 14.8585 53.2767 14.8585 53.3259 14.9078C52.8824 15.5989 52.3895 16.3394 51.946 17.1292C51.5024 17.8696 51.0096 18.7088 50.566 19.4986C50.5167 19.3999 50.4674 19.3505 50.4182 19.2518C50.3689 19.1531 50.2703 19.1037 50.221 19.005C50.1224 18.9062 50.0732 18.8569 50.0239 18.7582C49.9746 18.6594 49.876 18.6101 49.8267 18.5607C49.9253 18.4126 50.0732 18.2645 50.1717 18.0671C50.2703 17.8696 50.4674 17.6228 50.7139 17.3266C50.6646 17.2279 50.566 17.1785 50.5167 17.0798C50.4674 16.9811 50.3196 16.833 50.1717 16.6849C50.0239 16.4875 49.9253 16.3887 49.8267 16.29C49.7282 16.1913 49.6789 16.1419 49.6296 16.0432C49.2353 16.1913 48.8903 16.29 48.6932 16.3394C48.4961 16.3887 48.2989 16.4875 48.1511 16.5368C48.1018 16.4875 48.1018 16.4381 48.0525 16.3887C48.0032 16.3394 48.0032 16.29 47.9539 16.29C47.8061 16.2406 47.7075 16.1419 47.6089 16.0432ZM46.0318 14.0687C46.0811 14.118 46.1304 14.1674 46.229 14.2168C46.2783 14.2661 46.3768 14.3648 46.5247 14.4636C46.8204 14.7104 47.1161 14.9078 47.4118 15.1547C47.7075 15.4015 48.0032 15.5989 48.3482 15.8457C48.2989 15.8951 48.2496 15.9445 48.2004 15.9938C48.1511 16.0432 48.1511 16.0432 48.1018 16.0926C48.0525 16.1419 48.0032 16.2406 47.9046 16.3394C47.6582 16.1419 47.4118 15.8951 47.1654 15.6483C46.9189 15.4015 46.6232 15.204 46.3275 14.9078C46.0318 14.661 45.7361 14.4142 45.4404 14.1674C45.1447 13.9206 44.849 13.7231 44.5533 13.4763L44.6519 13.3776C45.539 13.1308 46.3768 12.884 47.2147 12.6865C48.0525 12.4397 48.7918 12.1929 49.5803 11.9461C49.4817 11.8473 49.3832 11.798 49.2846 11.6992C49.186 11.6005 49.0875 11.5512 48.9889 11.4524C48.7918 11.3043 48.5946 11.1069 48.3482 10.9588C48.1018 10.8107 47.9046 10.6133 47.6582 10.4652C47.7075 10.4158 47.7568 10.4158 47.7568 10.3664C47.8061 10.3171 47.8061 10.3171 47.8554 10.2677C47.9046 10.2183 47.9046 10.2183 47.9539 10.169C48.0032 10.1196 48.0032 10.1196 48.0525 10.0703C48.3482 10.3171 48.5946 10.5639 48.841 10.7613C49.0875 10.9588 49.2846 11.1562 49.531 11.3537C49.7282 11.5512 49.9746 11.6992 50.221 11.8967C50.4674 12.0941 50.7631 12.2916 51.0589 12.5384L50.9603 12.6371C50.1717 12.884 49.3339 13.0814 48.5453 13.3282C47.6582 13.5257 46.8697 13.7725 46.0318 14.0687ZM42.0398 11.9954C42.1876 11.798 42.3848 11.5512 42.5819 11.3043C42.779 11.0575 43.0748 10.6133 43.469 10.0209L43.6662 9.72472C43.9619 9.28045 44.2083 8.93491 44.3562 8.63873C44.504 8.39192 44.6519 8.1451 44.7504 7.89829C44.9476 8.04637 45.1447 8.1451 45.3418 8.29319C45.539 8.44128 45.7361 8.54 45.9825 8.68809C46.229 8.83618 46.4261 8.93491 46.6232 9.083C46.8204 9.18172 46.9682 9.28045 47.1654 9.37918C47.1161 9.42854 47.0668 9.4779 47.0668 9.52727C47.0175 9.57663 47.0175 9.57663 47.0175 9.62599C47.0175 9.67536 46.9682 9.67536 46.9682 9.72472C46.9682 9.77408 46.9189 9.82344 46.8697 9.87281C46.574 9.67536 46.3275 9.4779 46.0811 9.32981C45.884 9.18172 45.6868 9.03364 45.4897 8.93491C45.4404 8.98427 45.3911 9.083 45.3418 9.13236C45.2926 9.23109 45.194 9.32981 45.0954 9.4779L44.849 9.87281L44.6026 10.2677C44.7504 10.3664 44.9476 10.4652 45.2926 10.6626C45.5883 10.8601 45.8347 10.9588 46.0318 11.0575C45.9825 11.1069 45.9333 11.1562 45.9333 11.2056C45.884 11.255 45.884 11.255 45.8347 11.3043C45.7854 11.3537 45.7361 11.4524 45.6868 11.5512C45.3418 11.3043 45.0461 11.1069 44.849 10.9588C44.6519 10.8107 44.504 10.712 44.3562 10.6133L43.8633 11.3537C43.6662 11.6005 43.5676 11.798 43.5183 11.8967C43.469 11.9954 43.4197 12.0941 43.3705 12.1435C43.5676 12.2422 43.7647 12.3903 44.0112 12.489C44.2576 12.6371 44.504 12.7359 44.7997 12.884C44.7504 12.9333 44.7504 12.9333 44.7011 12.9827C44.6519 13.032 44.6519 13.0814 44.6026 13.0814C44.5533 13.1308 44.5533 13.1801 44.504 13.2295C44.4547 13.2789 44.4547 13.3282 44.4054 13.3776C44.0112 13.1308 43.6662 12.9333 43.469 12.7852C43.2719 12.6371 43.0748 12.5384 42.9269 12.4397C42.7298 12.341 42.5819 12.2422 42.4341 12.1435C42.2862 12.1435 42.1876 12.0448 42.0398 11.9954ZM40.2162 11.2056C40.3641 10.9094 40.5612 10.6133 40.7091 10.3171C40.8569 9.97153 41.1034 9.57663 41.3498 9.03363C41.5962 8.54 41.7934 8.09574 41.9412 7.7502C42.0891 7.40465 42.2369 7.05911 42.3355 6.8123C42.4341 6.86166 42.5326 6.91102 42.6312 6.96039C42.7298 7.00975 42.8283 7.05911 42.9269 7.10848C43.0255 7.15784 43.124 7.2072 43.2226 7.2072C43.3212 7.25657 43.4197 7.25657 43.5183 7.30593C43.3705 7.55274 43.1733 7.84892 43.0255 8.19446C42.8283 8.54 42.6312 8.93491 42.3848 9.4779C42.1383 10.0209 41.9412 10.4652 41.7934 10.8107C41.6455 11.1562 41.5469 11.4524 41.4484 11.6992C41.3498 11.6499 41.2512 11.6005 41.1527 11.5512C41.0541 11.5018 40.9555 11.4524 40.9062 11.4031C40.8077 11.3537 40.7091 11.3043 40.6105 11.3043C40.4627 11.3043 40.3148 11.255 40.2162 11.2056ZM36.6678 9.97153C36.8156 9.67536 36.9635 9.37918 37.062 8.98427C37.2099 8.63873 37.3577 8.19446 37.5549 7.70083C37.7027 7.2072 37.8506 6.8123 37.9984 6.41739C38.097 6.02249 38.1956 5.67695 38.2941 5.38077C38.3927 5.43013 38.442 5.43013 38.5406 5.4795C38.6391 5.52886 38.6884 5.52886 38.787 5.57822C38.8856 5.62758 39.0827 5.67695 39.3291 5.72631C39.5756 5.82504 39.822 5.8744 39.9698 5.92376C40.512 6.12121 40.9062 6.31867 41.0541 6.61485C41.2512 6.91102 41.2512 7.25657 41.1034 7.65147C40.9555 8.1451 40.6598 8.44128 40.2655 8.54C39.8713 8.68809 39.3291 8.63873 38.6884 8.39192C38.6391 8.39192 38.6391 8.39192 38.5899 8.34255C38.5406 8.34255 38.4913 8.29319 38.4913 8.29319L38.1463 9.28045C38.1463 9.32981 38.097 9.42854 38.0477 9.57663C37.9984 9.72472 37.9492 9.97153 37.8506 10.2677C37.752 10.2183 37.6534 10.169 37.5549 10.1196C37.4563 10.0703 37.3577 10.0703 37.2592 10.0209C37.1606 9.97153 37.062 9.97153 36.9635 9.92217C36.9142 10.0209 36.8156 9.97153 36.6678 9.97153ZM38.5899 7.99701C38.9841 8.09574 39.2798 8.1451 39.477 8.04637C39.6741 7.94765 39.8713 7.70083 39.9698 7.35529C40.0684 7.05911 40.0684 6.8123 40.0191 6.66421C39.9205 6.46676 39.7727 6.36803 39.477 6.2693C39.4277 6.2693 39.3784 6.21994 39.2798 6.21994C39.2306 6.31867 39.1813 6.46676 39.132 6.56548C39.0827 6.66421 39.0334 6.8123 38.9841 6.91102L38.5899 7.99701ZM30.1622 9.23109C30.2608 8.88555 30.31 8.58937 30.4086 8.29319C30.4579 8.04637 30.5072 7.84892 30.5565 7.7502L31.2957 4.44287C31.345 4.44287 31.3943 4.44287 31.4436 4.49223C31.4929 4.49223 31.5422 4.49223 31.5914 4.49223C31.6407 4.49223 31.69 4.49223 31.7393 4.49223C31.7886 4.49223 31.8379 4.49223 31.8872 4.49223C32.0843 5.08459 32.3307 5.62758 32.5771 6.21994C32.8236 6.8123 33.07 7.35529 33.3164 7.89829C33.6614 7.40465 33.9571 6.86166 34.3021 6.36803C34.6471 5.82504 34.9428 5.28204 35.2385 4.73905C35.2878 4.73905 35.3371 4.73905 35.3864 4.78841C35.4356 4.78841 35.4849 4.78841 35.5835 4.78841C35.6328 4.78841 35.6821 4.78841 35.7806 4.78841C35.8299 4.78841 35.8792 4.78841 35.9285 4.78841L36.0763 8.19446C36.0763 8.58937 36.1256 8.88555 36.1256 9.083C36.1256 9.28045 36.1749 9.4779 36.1749 9.67536C36.0763 9.67536 35.9285 9.62599 35.8299 9.62599C35.7314 9.62599 35.6328 9.62599 35.5342 9.57663C35.4356 9.57663 35.3371 9.57663 35.2385 9.57663C35.1399 9.57663 35.0414 9.57663 34.9428 9.57663V9.52727C34.9428 9.03363 34.9428 8.73746 34.9428 8.58937L34.9921 6.36803C34.6964 6.86166 34.3514 7.35529 34.0557 7.84892C33.76 8.34255 33.415 8.88555 33.07 9.4779H33.0207C33.0207 9.4779 32.9714 9.4779 32.9221 9.4779C32.8728 9.4779 32.8728 9.4779 32.8236 9.4779H32.7743C32.5279 8.88555 32.2814 8.29319 32.0843 7.79956C31.8379 7.25657 31.6407 6.76293 31.3943 6.2693L31.0493 7.65147V7.70083C30.9015 8.44128 30.8029 8.98427 30.8029 9.28045C30.7536 9.28045 30.7043 9.23109 30.655 9.23109C30.6058 9.23109 30.5565 9.23109 30.5072 9.23109C30.4579 9.23109 30.4086 9.23109 30.3593 9.23109C30.2608 9.23109 30.2115 9.23109 30.1622 9.23109ZM28.4372 9.52727C28.4372 9.23109 28.4372 8.88555 28.4372 8.54C28.4372 8.19446 28.388 7.70083 28.3387 7.15784C28.2894 6.61485 28.2401 6.12121 28.1908 5.77567C28.1415 5.38077 28.0922 5.08459 28.043 4.78841C28.1415 4.78841 28.2401 4.78841 28.3879 4.78841C28.4865 4.78841 28.5851 4.78841 28.7329 4.78841C28.8315 4.78841 28.9301 4.78841 29.0779 4.73905C29.1765 4.73905 29.2751 4.68969 29.3736 4.68969C29.3736 4.98586 29.3736 5.33141 29.3736 5.72631C29.3736 6.12122 29.4229 6.56548 29.4722 7.10848C29.5215 7.70083 29.5708 8.19446 29.6201 8.54C29.6693 8.88555 29.7186 9.23109 29.7679 9.52727C29.6694 9.52727 29.5215 9.52727 29.4229 9.52727C29.3244 9.52727 29.2258 9.52727 29.1272 9.52727C29.0286 9.52727 28.9301 9.52727 28.8315 9.57663C28.6837 9.52727 28.5851 9.52727 28.4372 9.52727ZM25.3816 10.1196C25.3323 9.77408 25.283 9.42854 25.1845 9.083C25.0859 8.68809 24.9873 8.29319 24.8887 7.7502C24.7902 7.25657 24.6423 6.8123 24.5438 6.41739C24.4452 6.02249 24.3466 5.67695 24.248 5.38077C24.3466 5.38077 24.4452 5.38077 24.5438 5.33141C24.6423 5.33141 24.7409 5.28204 24.8395 5.28204C24.938 5.28204 25.0366 5.23268 25.1352 5.18332C25.2337 5.13395 25.3323 5.13395 25.4309 5.08459C25.4802 5.43013 25.5294 5.77567 25.628 6.17058C25.7266 6.56548 25.8252 7.00975 25.9237 7.50338C26.0223 7.99701 26.1209 8.34255 26.2194 8.63873C26.318 8.93491 26.3673 9.13236 26.4166 9.37918C26.7123 9.32981 27.008 9.23109 27.2544 9.18172C27.5008 9.083 27.7965 9.03364 28.043 8.93491C28.043 8.98427 28.043 9.03364 28.043 9.083C28.043 9.13236 28.043 9.18172 28.0922 9.23109C28.0922 9.28045 28.1415 9.32981 28.1415 9.37918C28.1415 9.42854 28.1908 9.4779 28.1908 9.52727C27.8458 9.57663 27.5501 9.62599 27.3037 9.67536C27.0573 9.72472 26.8601 9.77408 26.663 9.82344C26.5151 9.87281 26.318 9.92217 26.1209 9.97153C25.9237 9.97153 25.6773 10.0209 25.3816 10.1196Z" stroke="#066133" stroke-width="1.4173" stroke-miterlimit="22.9256" stroke-linecap="round" stroke-linejoin="round"/>
</g>
<mask id="mask16_297_2885" style="mask-type:alpha" maskUnits="userSpaceOnUse" x="0" y="0" width="62" height="62">
<path d="M30.9999 61.5065C47.7669 61.5065 61.3592 47.8925 61.3592 31.0988C61.3592 14.3051 47.7669 0.691162 30.9999 0.691162C14.2329 0.691162 0.640625 14.3051 0.640625 31.0988C0.640625 47.8925 14.2329 61.5065 30.9999 61.5065Z" fill="white"/>
</mask>
<g mask="url(#mask16_297_2885)">
<g filter="url(#filter1_d_297_2885)">
<path fill-rule="evenodd" clip-rule="evenodd" d="M48.9889 47.2406C48.7425 47.4381 48.5946 47.5862 48.4961 47.6849C48.4468 47.7343 48.3975 47.7836 48.2989 47.833C48.2496 47.8824 48.1511 47.9811 48.0032 48.1292C48.2989 48.2773 48.5453 48.4254 48.841 48.5241C49.1368 48.6722 49.3832 48.7709 49.6789 48.8696C49.5803 48.6228 49.4817 48.3266 49.3832 48.0798C49.2353 47.833 49.0875 47.5368 48.9889 47.2406ZM48.5946 44.9699C48.8903 45.7597 49.186 46.5496 49.531 47.3887C49.876 48.2279 50.221 49.0671 50.6646 49.9062C50.6153 49.9556 50.566 49.9556 50.566 50.005C50.5167 50.0543 50.4674 50.0543 50.4674 50.1037C50.4182 50.1531 50.4182 50.1531 50.3689 50.2024C50.3196 50.2518 50.3196 50.2518 50.2703 50.3012C49.4817 49.9556 48.6932 49.5607 47.8554 49.2152C47.0175 48.8696 46.1304 48.4747 45.2433 48.1292C45.3418 48.0798 45.3911 48.0304 45.4897 47.9317C45.5883 47.8824 45.6376 47.7836 45.7361 47.7343C45.8347 47.6355 45.884 47.5862 45.9825 47.4875C46.0318 47.4381 46.1304 47.3394 46.1797 47.29C46.3275 47.3887 46.5247 47.4875 46.7218 47.5862C46.919 47.6849 47.2147 47.833 47.5597 48.0305C47.6582 47.9811 47.7075 47.8824 47.8061 47.833C47.9046 47.7343 48.0032 47.6355 48.2004 47.4875C48.3975 47.3394 48.4961 47.1913 48.5946 47.1419C48.6932 47.0432 48.7425 46.9938 48.841 46.8951C48.6439 46.5002 48.4961 46.204 48.4468 46.0559C48.3482 45.8585 48.2989 45.7104 48.2004 45.5623C48.2496 45.5129 48.2989 45.5129 48.3482 45.4636C48.3975 45.4142 48.4468 45.4142 48.4468 45.3648C48.4468 45.1674 48.4961 45.118 48.5946 44.9699ZM55.2973 44.2295C55.248 44.2789 55.1495 44.3776 55.1002 44.4269C55.0509 44.5257 54.9523 44.575 54.9031 44.6738C54.8538 44.7725 54.7552 44.8712 54.7059 44.9206C54.6566 45.0193 54.6073 45.0687 54.5581 45.1674C54.2624 44.9206 53.9666 44.6738 53.5724 44.4269C53.2274 44.1801 52.8331 43.884 52.3895 43.5878C52.0445 43.341 51.7981 43.1929 51.6503 43.0941C51.5024 42.9954 51.3546 42.9461 51.2067 42.9461C51.0096 42.8967 50.7631 42.8967 50.566 42.9954C50.3689 43.0941 50.1717 43.2422 50.0239 43.4397C49.876 43.6371 49.7775 43.8346 49.7282 44.0814C49.6789 44.2789 49.7282 44.4763 49.7775 44.6738C49.8267 44.8218 49.9746 44.9699 50.1224 45.1674C50.2703 45.3155 50.6153 45.5623 51.0589 45.8585C51.4531 46.1053 51.7981 46.3521 52.0938 46.5496C52.4388 46.747 52.7345 46.9445 53.0302 47.0926C52.981 47.1419 52.9317 47.1913 52.9317 47.2406C52.8824 47.29 52.8331 47.3394 52.8331 47.3887C52.7838 47.4381 52.7345 47.4875 52.7345 47.5368C52.6852 47.5862 52.6852 47.6355 52.636 47.6849C52.3895 47.4875 52.1431 47.29 51.946 47.1419C51.7488 46.9938 51.5517 46.8457 51.4038 46.747C51.3053 46.6976 51.1574 46.5989 50.9603 46.4508C50.7631 46.3027 50.6153 46.204 50.5167 46.1547C50.1224 45.9078 49.8267 45.661 49.6789 45.4636C49.4818 45.2661 49.3832 45.0687 49.3339 44.8219C49.2846 44.575 49.2846 44.2789 49.3339 43.9827C49.4325 43.6865 49.5803 43.3903 49.7775 43.0941C50.0239 42.7486 50.3196 42.5018 50.566 42.3043C50.8617 42.1069 51.1081 42.0575 51.4038 42.0575C51.601 42.0575 51.8474 42.1069 52.0938 42.2056C52.3403 42.3043 52.6852 42.5018 53.1781 42.8473L53.7202 43.1929C54.1145 43.4397 54.4102 43.6371 54.6566 43.7852C54.8538 43.9827 55.0509 44.1308 55.2973 44.2295ZM51.601 41.0703C51.6503 40.6754 51.6996 40.2804 51.7981 39.9349C51.8967 39.5894 51.9953 39.2932 52.0938 38.9476C52.3895 38.2072 52.8331 37.7136 53.4738 37.4668C54.0652 37.2199 54.7552 37.2199 55.4945 37.5161C56.2337 37.8123 56.7759 38.2566 57.0223 38.8983C57.2687 39.54 57.2194 40.2311 56.8744 41.0209C56.7266 41.3664 56.5787 41.6626 56.3816 41.9094C56.1845 42.1562 55.9873 42.3537 55.7409 42.5511C55.593 42.4524 55.4945 42.3537 55.3466 42.255C55.248 42.1562 55.1002 42.1069 55.0016 42.0575V42.0082C55.3466 41.9588 55.6423 41.8601 55.8887 41.6626C56.1352 41.4652 56.3323 41.2183 56.4309 40.9222C56.628 40.4285 56.628 39.9843 56.3816 39.5894C56.1352 39.1945 55.6916 38.8489 55.0509 38.6021C54.4102 38.3553 53.8188 38.3059 53.3752 38.454C52.9317 38.6021 52.5867 38.8983 52.3895 39.3919C52.3403 39.54 52.291 39.6881 52.2417 39.8362C52.1924 39.9843 52.1924 40.083 52.1924 40.2311C52.291 40.2804 52.3895 40.3298 52.4881 40.3792C52.5867 40.4285 52.6852 40.4779 52.7838 40.5273C52.981 40.5766 53.1781 40.6754 53.3259 40.7247C53.4738 40.7741 53.6709 40.8234 53.8188 40.8728C53.7695 40.9715 53.7202 41.0209 53.6709 41.1196C53.6217 41.2183 53.5724 41.3171 53.5231 41.4158C53.4738 41.5145 53.4738 41.6133 53.4245 41.6626C53.3752 41.7613 53.3752 41.8107 53.3752 41.9094C53.2274 41.8601 53.0795 41.7613 52.8824 41.712C52.6852 41.6626 52.5374 41.5639 52.291 41.4652C52.0938 41.3664 51.8967 41.3171 51.7981 41.2677C51.7981 41.1196 51.6996 41.1196 51.601 41.0703ZM55.593 34.0607C55.5438 34.3569 55.4945 34.5543 55.4452 34.7024C55.4452 34.7518 55.3959 34.8505 55.3959 34.9492C55.3959 35.048 55.3466 35.1467 55.3466 35.3441C55.6423 35.2948 55.938 35.2454 56.2337 35.1961C56.5294 35.1467 56.8251 35.0973 57.1209 34.9986C56.8744 34.8505 56.628 34.7024 56.3816 34.5543C56.1352 34.3569 55.8395 34.2088 55.593 34.0607ZM53.8681 32.4317C54.6073 32.9254 55.3466 33.3696 56.1352 33.8139C56.9237 34.2582 57.7616 34.7518 58.5994 35.1961C58.5994 35.2454 58.5501 35.2948 58.5501 35.3441C58.5501 35.3935 58.5501 35.4429 58.5008 35.4922C58.5008 35.5416 58.5008 35.591 58.5008 35.6403C58.5008 35.6897 58.5008 35.739 58.5008 35.739C57.663 35.8871 56.7759 36.0352 55.8395 36.2327C54.9523 36.4301 54.0159 36.6276 53.0302 36.825C53.0795 36.7263 53.0795 36.6276 53.1288 36.5289C53.1288 36.4301 53.1781 36.3314 53.1781 36.2327C53.1781 36.134 53.2274 36.0352 53.2274 35.9365C53.2274 35.8378 53.2274 35.739 53.2767 35.6403C53.4738 35.6403 53.6709 35.591 53.8681 35.5416C54.0652 35.4922 54.4102 35.4922 54.8045 35.3935C54.8045 35.2948 54.8538 35.1961 54.8538 35.0973C54.8538 34.9986 54.9031 34.8011 54.9523 34.6037C55.0016 34.3569 55.0016 34.2088 55.0509 34.1101C55.0509 34.0113 55.1002 33.9126 55.1002 33.8139C54.7059 33.6164 54.4102 33.4683 54.2131 33.3696C54.0159 33.2709 53.8681 33.1722 53.7202 33.0734C53.7202 33.0241 53.7695 32.9747 53.7695 32.9254C53.7695 32.876 53.7695 32.8266 53.8188 32.7773C53.8681 32.6785 53.8681 32.5798 53.8681 32.4317ZM53.3259 26.1133C53.6709 26.1133 54.0652 26.0639 54.4595 26.0145C54.8538 25.9652 55.2973 25.9158 55.7902 25.8664C56.2337 25.8171 56.6773 25.7677 57.1209 25.669C57.5644 25.6196 57.9587 25.5209 58.353 25.4715C58.353 25.5209 58.353 25.5703 58.353 25.669C58.353 25.7183 58.353 25.8171 58.353 25.8664C58.353 25.9158 58.353 26.0145 58.4023 26.0639C58.4023 26.1133 58.4515 26.1626 58.4515 26.2613C57.9587 26.8043 57.4658 27.3473 56.973 27.8903C56.4802 28.4333 55.9873 29.0257 55.4945 29.5687L56.3816 29.4699C56.5294 29.4699 56.8744 29.4206 57.318 29.3712C57.7616 29.3219 58.3037 29.2231 58.8951 29.1738C58.8951 29.2231 58.8951 29.2725 58.8951 29.3219C58.8951 29.3712 58.8951 29.4206 58.8951 29.4699C58.8951 29.5193 58.8951 29.5687 58.9444 29.618C58.9444 29.6674 58.9444 29.7168 58.9937 29.7661C58.7965 29.7661 58.4515 29.8155 58.008 29.8155C57.5644 29.8648 56.8744 29.9636 55.8887 30.0623L55.4945 30.1117C55.1002 30.161 54.8045 30.2104 54.5581 30.2597C54.3116 30.3091 54.1145 30.3585 53.9666 30.3585C53.9666 30.3091 53.9666 30.2598 53.9666 30.2104C53.9666 30.161 53.9666 30.1117 53.9666 30.0623C53.9666 30.0129 53.9666 29.9636 53.9174 29.9142C53.9174 29.8648 53.8681 29.8155 53.8681 29.7661C54.3116 29.2725 54.8045 28.7295 55.3466 28.1865C55.8395 27.5941 56.4309 27.0018 57.0223 26.3107L54.8538 26.5575C54.7552 26.5575 54.6073 26.6069 54.3609 26.6069C54.1145 26.6562 53.8188 26.7056 53.4738 26.755C53.4738 26.7056 53.4738 26.6562 53.4738 26.6069C53.4738 26.5575 53.4738 26.5082 53.4738 26.4588C53.4738 26.4094 53.4738 26.3601 53.4245 26.3107C53.3752 26.212 53.3259 26.1626 53.3259 26.1133ZM52.7345 24.3855C53.0795 24.3362 53.3752 24.2375 53.7695 24.1881C54.1145 24.0894 54.6073 23.9906 55.1988 23.8426C55.7409 23.6945 56.2337 23.5464 56.628 23.4476C57.0223 23.3489 57.318 23.2008 57.6137 23.1021C57.6137 23.2008 57.663 23.2996 57.663 23.3983C57.663 23.497 57.7123 23.5957 57.7616 23.6945C57.8108 23.7932 57.8108 23.8919 57.8601 23.9906C57.9094 24.0894 57.9587 24.1881 57.9587 24.2868C57.663 24.3362 57.318 24.4349 56.9237 24.5336C56.5294 24.6324 56.0859 24.7311 55.4945 24.8792C54.9031 25.0273 54.4102 25.1754 54.0652 25.2741C53.7202 25.3728 53.3752 25.4715 53.0795 25.5703C53.0795 25.4715 53.0302 25.3728 53.0302 25.2741C53.0302 25.1754 52.981 25.0766 52.981 24.9779C52.9317 24.8792 52.9317 24.7805 52.8824 24.6817C52.8331 24.583 52.7838 24.4843 52.7345 24.3855ZM51.5517 21.0289C51.6996 21.0289 51.8967 20.9795 52.0445 20.9301C52.1924 20.8808 52.3895 20.8808 52.5867 20.8314L52.636 20.9301C52.3895 21.0782 52.2417 21.2757 52.1924 21.5225C52.1431 21.7693 52.1431 21.9668 52.2417 22.2136C52.3403 22.411 52.4881 22.5591 52.6852 22.6578C52.8824 22.7566 53.0795 22.7072 53.2767 22.6578C53.4245 22.6085 53.5231 22.5097 53.6217 22.3617C53.6709 22.2136 53.7202 21.9668 53.7695 21.5719C53.8188 20.9301 53.9174 20.5352 54.0159 20.2884C54.1638 20.0416 54.3609 19.8441 54.6566 19.7454C55.0509 19.548 55.4452 19.548 55.8395 19.7454C56.2337 19.8935 56.5294 20.239 56.7266 20.6833C56.8251 20.8808 56.8744 21.0782 56.9237 21.2757C56.973 21.4731 56.973 21.6706 56.9237 21.868C56.7759 21.868 56.628 21.9174 56.4802 21.9174C56.3323 21.9174 56.1845 21.9668 56.0859 21.9668L56.0366 21.9174C56.1845 21.7693 56.3323 21.5719 56.3323 21.3744C56.3816 21.1769 56.3323 20.9795 56.2337 20.782C56.1352 20.5846 56.0366 20.4859 55.8395 20.3871C55.6916 20.3378 55.4945 20.3378 55.3466 20.3871C55.1988 20.4365 55.1002 20.5352 55.0016 20.6833C54.9523 20.8314 54.9031 21.0782 54.8538 21.4238C54.8538 21.5225 54.8538 21.6212 54.8538 21.7693C54.8538 22.2136 54.8045 22.4604 54.7552 22.6085C54.7059 22.7566 54.6073 22.9047 54.4595 23.0527C54.3609 23.1515 54.1638 23.2502 54.0159 23.3489C53.5724 23.5464 53.1288 23.5464 52.6852 23.3983C52.291 23.2008 51.946 22.9047 51.6996 22.411C51.601 22.1642 51.5024 21.9174 51.4531 21.7199C51.5024 21.4238 51.5024 21.2263 51.5517 21.0289ZM50.0239 15.8951C50.221 16.1419 50.3196 16.29 50.4182 16.3887C50.4674 16.4381 50.5167 16.4875 50.566 16.5862C50.6153 16.6355 50.7139 16.7343 50.8124 16.8824C50.9603 16.6355 51.1574 16.3887 51.3053 16.1419C51.4531 15.8951 51.601 15.6483 51.7488 15.4015C51.4531 15.4508 51.1574 15.5496 50.911 15.5989C50.6153 15.6976 50.3196 15.7964 50.0239 15.8951ZM47.6089 16.0432C48.4468 15.8457 49.3339 15.5989 50.221 15.3521C51.1081 15.1053 51.9953 14.8091 52.9317 14.5129C52.981 14.5623 52.981 14.6117 53.0302 14.6117C53.0795 14.661 53.0795 14.7104 53.1288 14.7104C53.1781 14.7597 53.1781 14.7597 53.2274 14.8091C53.2767 14.8585 53.2767 14.8585 53.3259 14.9078C52.8824 15.5989 52.3895 16.3394 51.946 17.1292C51.5024 17.8696 51.0096 18.7088 50.566 19.4986C50.5167 19.3999 50.4674 19.3505 50.4182 19.2518C50.3689 19.1531 50.2703 19.1037 50.221 19.005C50.1224 18.9062 50.0732 18.8569 50.0239 18.7582C49.9746 18.6594 49.876 18.6101 49.8267 18.5607C49.9253 18.4126 50.0732 18.2645 50.1717 18.0671C50.2703 17.8696 50.4674 17.6228 50.7139 17.3266C50.6646 17.2279 50.566 17.1785 50.5167 17.0798C50.4674 16.9811 50.3196 16.833 50.1717 16.6849C50.0239 16.4875 49.9253 16.3887 49.8267 16.29C49.7282 16.1913 49.6789 16.1419 49.6296 16.0432C49.2353 16.1913 48.8903 16.29 48.6932 16.3394C48.4961 16.3887 48.2989 16.4875 48.1511 16.5368C48.1018 16.4875 48.1018 16.4381 48.0525 16.3887C48.0032 16.3394 48.0032 16.29 47.9539 16.29C47.8061 16.2406 47.7075 16.1419 47.6089 16.0432ZM46.0318 14.0687C46.0811 14.118 46.1304 14.1674 46.229 14.2168C46.2783 14.2661 46.3768 14.3648 46.5247 14.4636C46.8204 14.7104 47.1161 14.9078 47.4118 15.1547C47.7075 15.4015 48.0032 15.5989 48.3482 15.8457C48.2989 15.8951 48.2496 15.9445 48.2004 15.9938C48.1511 16.0432 48.1511 16.0432 48.1018 16.0926C48.0525 16.1419 48.0032 16.2406 47.9046 16.3394C47.6582 16.1419 47.4118 15.8951 47.1654 15.6483C46.9189 15.4015 46.6232 15.204 46.3275 14.9078C46.0318 14.661 45.7361 14.4142 45.4404 14.1674C45.1447 13.9206 44.849 13.7231 44.5533 13.4763L44.6519 13.3776C45.539 13.1308 46.3768 12.884 47.2147 12.6865C48.0525 12.4397 48.7918 12.1929 49.5803 11.9461C49.4817 11.8473 49.3832 11.798 49.2846 11.6992C49.186 11.6005 49.0875 11.5512 48.9889 11.4524C48.7918 11.3043 48.5946 11.1069 48.3482 10.9588C48.1018 10.8107 47.9046 10.6133 47.6582 10.4652C47.7075 10.4158 47.7568 10.4158 47.7568 10.3664C47.8061 10.3171 47.8061 10.3171 47.8554 10.2677C47.9046 10.2183 47.9046 10.2183 47.9539 10.169C48.0032 10.1196 48.0032 10.1196 48.0525 10.0703C48.3482 10.3171 48.5946 10.5639 48.841 10.7613C49.0875 10.9588 49.2846 11.1562 49.531 11.3537C49.7282 11.5512 49.9746 11.6992 50.221 11.8967C50.4674 12.0941 50.7631 12.2916 51.0589 12.5384L50.9603 12.6371C50.1717 12.884 49.3339 13.0814 48.5453 13.3282C47.6582 13.5257 46.8697 13.7725 46.0318 14.0687ZM42.0398 11.9954C42.1876 11.798 42.3848 11.5512 42.5819 11.3043C42.779 11.0575 43.0748 10.6133 43.469 10.0209L43.6662 9.72472C43.9619 9.28045 44.2083 8.93491 44.3562 8.63873C44.504 8.39192 44.6519 8.1451 44.7504 7.89828C44.9476 8.04637 45.1447 8.1451 45.3418 8.29319C45.539 8.44128 45.7361 8.54 45.9825 8.68809C46.229 8.83618 46.4261 8.93491 46.6232 9.083C46.8204 9.18172 46.9682 9.28045 47.1654 9.37918C47.1161 9.42854 47.0668 9.4779 47.0668 9.52727C47.0175 9.57663 47.0175 9.57663 47.0175 9.62599C47.0175 9.67535 46.9682 9.67536 46.9682 9.72472C46.9682 9.77408 46.9189 9.82344 46.8697 9.87281C46.574 9.67535 46.3275 9.4779 46.0811 9.32981C45.884 9.18172 45.6868 9.03364 45.4897 8.93491C45.4404 8.98427 45.3911 9.083 45.3418 9.13236C45.2926 9.23109 45.194 9.32981 45.0954 9.4779L44.849 9.87281L44.6026 10.2677C44.7504 10.3664 44.9476 10.4652 45.2926 10.6626C45.5883 10.8601 45.8347 10.9588 46.0318 11.0575C45.9825 11.1069 45.9333 11.1562 45.9333 11.2056C45.884 11.255 45.884 11.255 45.8347 11.3043C45.7854 11.3537 45.7361 11.4524 45.6868 11.5512C45.3418 11.3043 45.0461 11.1069 44.849 10.9588C44.6519 10.8107 44.504 10.712 44.3562 10.6133L43.8633 11.3537C43.6662 11.6005 43.5676 11.798 43.5183 11.8967C43.469 11.9954 43.4197 12.0941 43.3705 12.1435C43.5676 12.2422 43.7647 12.3903 44.0112 12.489C44.2576 12.6371 44.504 12.7359 44.7997 12.884C44.7504 12.9333 44.7504 12.9333 44.7011 12.9827C44.6519 13.032 44.6519 13.0814 44.6026 13.0814C44.5533 13.1308 44.5533 13.1801 44.504 13.2295C44.4547 13.2789 44.4547 13.3282 44.4054 13.3776C44.0112 13.1308 43.6662 12.9333 43.469 12.7852C43.2719 12.6371 43.0748 12.5384 42.9269 12.4397C42.7298 12.341 42.5819 12.2422 42.4341 12.1435C42.2862 12.1435 42.1876 12.0448 42.0398 11.9954ZM40.2162 11.2056C40.3641 10.9094 40.5612 10.6133 40.7091 10.3171C40.8569 9.97153 41.1034 9.57663 41.3498 9.03364C41.5962 8.54 41.7934 8.09574 41.9412 7.7502C42.0891 7.40465 42.2369 7.05911 42.3355 6.8123C42.4341 6.86166 42.5326 6.91102 42.6312 6.96039C42.7298 7.00975 42.8283 7.05911 42.9269 7.10848C43.0255 7.15784 43.124 7.2072 43.2226 7.2072C43.3212 7.25657 43.4197 7.25657 43.5183 7.30593C43.3705 7.55274 43.1733 7.84892 43.0255 8.19446C42.8283 8.54 42.6312 8.93491 42.3848 9.4779C42.1383 10.0209 41.9412 10.4652 41.7934 10.8107C41.6455 11.1562 41.5469 11.4524 41.4484 11.6992C41.3498 11.6499 41.2512 11.6005 41.1527 11.5512C41.0541 11.5018 40.9555 11.4524 40.9062 11.4031C40.8077 11.3537 40.7091 11.3043 40.6105 11.3043C40.4627 11.3043 40.3148 11.255 40.2162 11.2056ZM36.6678 9.97153C36.8156 9.67536 36.9635 9.37918 37.062 8.98427C37.2099 8.63873 37.3577 8.19446 37.5549 7.70083C37.7027 7.2072 37.8506 6.8123 37.9984 6.41739C38.097 6.02249 38.1956 5.67695 38.2941 5.38077C38.3927 5.43013 38.442 5.43013 38.5406 5.4795C38.6391 5.52886 38.6884 5.52886 38.787 5.57822C38.8856 5.62758 39.0827 5.67695 39.3291 5.72631C39.5756 5.82504 39.822 5.8744 39.9698 5.92376C40.512 6.12121 40.9062 6.31867 41.0541 6.61485C41.2512 6.91102 41.2512 7.25657 41.1034 7.65147C40.9555 8.1451 40.6598 8.44128 40.2655 8.54C39.8713 8.68809 39.3291 8.63873 38.6884 8.39192C38.6391 8.39192 38.6391 8.39192 38.5899 8.34255C38.5406 8.34255 38.4913 8.29319 38.4913 8.29319L38.1463 9.28045C38.1463 9.32981 38.097 9.42854 38.0477 9.57663C37.9984 9.72472 37.9492 9.97153 37.8506 10.2677C37.752 10.2183 37.6534 10.169 37.5549 10.1196C37.4563 10.0703 37.3577 10.0703 37.2592 10.0209C37.1606 9.97153 37.062 9.97153 36.9635 9.92217C36.9142 10.0209 36.8156 9.97153 36.6678 9.97153ZM38.5899 7.99701C38.9841 8.09574 39.2798 8.1451 39.477 8.04637C39.6741 7.94765 39.8713 7.70083 39.9698 7.35529C40.0684 7.05911 40.0684 6.8123 40.0191 6.66421C39.9205 6.46676 39.7727 6.36803 39.477 6.2693C39.4277 6.2693 39.3784 6.21994 39.2798 6.21994C39.2306 6.31867 39.1813 6.46676 39.132 6.56548C39.0827 6.66421 39.0334 6.8123 38.9841 6.91102L38.5899 7.99701ZM30.1622 9.23109C30.2608 8.88555 30.31 8.58937 30.4086 8.29319C30.4579 8.04637 30.5072 7.84892 30.5565 7.7502L31.2957 4.44287C31.345 4.44287 31.3943 4.44287 31.4436 4.49223C31.4929 4.49223 31.5422 4.49223 31.5914 4.49223C31.6407 4.49223 31.69 4.49223 31.7393 4.49223C31.7886 4.49223 31.8379 4.49223 31.8872 4.49223C32.0843 5.08459 32.3307 5.62758 32.5771 6.21994C32.8236 6.8123 33.07 7.35529 33.3164 7.89828C33.6614 7.40465 33.9571 6.86166 34.3021 6.36803C34.6471 5.82504 34.9428 5.28204 35.2385 4.73905C35.2878 4.73905 35.3371 4.73905 35.3864 4.78841C35.4356 4.78841 35.4849 4.78841 35.5835 4.78841C35.6328 4.78841 35.6821 4.78841 35.7806 4.78841C35.8299 4.78841 35.8792 4.78841 35.9285 4.78841L36.0763 8.19446C36.0763 8.58937 36.1256 8.88555 36.1256 9.083C36.1256 9.28045 36.1749 9.4779 36.1749 9.67536C36.0763 9.67536 35.9285 9.62599 35.8299 9.62599C35.7314 9.62599 35.6328 9.62599 35.5342 9.57663C35.4356 9.57663 35.3371 9.57663 35.2385 9.57663C35.1399 9.57663 35.0414 9.57663 34.9428 9.57663V9.52727C34.9428 9.03364 34.9428 8.73746 34.9428 8.58937L34.9921 6.36803C34.6964 6.86166 34.3514 7.35529 34.0557 7.84892C33.76 8.34255 33.415 8.88555 33.07 9.4779H33.0207C33.0207 9.4779 32.9714 9.4779 32.9221 9.4779C32.8728 9.4779 32.8728 9.4779 32.8236 9.4779H32.7743C32.5279 8.88555 32.2814 8.29319 32.0843 7.79956C31.8379 7.25657 31.6407 6.76293 31.3943 6.2693L31.0493 7.65147V7.70083C30.9015 8.44128 30.8029 8.98427 30.8029 9.28045C30.7536 9.28045 30.7043 9.23109 30.655 9.23109C30.6058 9.23109 30.5565 9.23109 30.5072 9.23109C30.4579 9.23109 30.4086 9.23109 30.3593 9.23109C30.2608 9.23109 30.2115 9.23109 30.1622 9.23109ZM28.4372 9.52727C28.4372 9.23109 28.4372 8.88555 28.4372 8.54C28.4372 8.19446 28.388 7.70083 28.3387 7.15784C28.2894 6.61485 28.2401 6.12121 28.1908 5.77567C28.1415 5.38077 28.0922 5.08459 28.043 4.78841C28.1415 4.78841 28.2401 4.78841 28.3879 4.78841C28.4865 4.78841 28.5851 4.78841 28.7329 4.78841C28.8315 4.78841 28.9301 4.78841 29.0779 4.73905C29.1765 4.73905 29.2751 4.68969 29.3736 4.68969C29.3736 4.98586 29.3736 5.33141 29.3736 5.72631C29.3736 6.12122 29.4229 6.56548 29.4722 7.10848C29.5215 7.70083 29.5708 8.19446 29.6201 8.54C29.6693 8.88555 29.7186 9.23109 29.7679 9.52727C29.6694 9.52727 29.5215 9.52727 29.4229 9.52727C29.3244 9.52727 29.2258 9.52727 29.1272 9.52727C29.0286 9.52727 28.9301 9.52727 28.8315 9.57663C28.6837 9.52727 28.5851 9.52727 28.4372 9.52727ZM25.3816 10.1196C25.3323 9.77408 25.283 9.42854 25.1845 9.083C25.0859 8.68809 24.9873 8.29319 24.8887 7.7502C24.7902 7.25657 24.6423 6.8123 24.5438 6.41739C24.4452 6.02249 24.3466 5.67695 24.248 5.38077C24.3466 5.38077 24.4452 5.38077 24.5438 5.33141C24.6423 5.33141 24.7409 5.28204 24.8395 5.28204C24.938 5.28204 25.0366 5.23268 25.1352 5.18332C25.2337 5.13395 25.3323 5.13395 25.4309 5.08459C25.4802 5.43013 25.5294 5.77567 25.628 6.17058C25.7266 6.56548 25.8252 7.00975 25.9237 7.50338C26.0223 7.99701 26.1209 8.34255 26.2194 8.63873C26.318 8.93491 26.3673 9.13236 26.4166 9.37918C26.7123 9.32981 27.008 9.23109 27.2544 9.18172C27.5008 9.083 27.7965 9.03364 28.043 8.93491C28.043 8.98427 28.043 9.03364 28.043 9.083C28.043 9.13236 28.043 9.18173 28.0922 9.23109C28.0922 9.28045 28.1415 9.32981 28.1415 9.37918C28.1415 9.42854 28.1908 9.4779 28.1908 9.52727C27.8458 9.57663 27.5501 9.62599 27.3037 9.67536C27.0573 9.72472 26.8601 9.77408 26.663 9.82344C26.5151 9.87281 26.318 9.92217 26.1209 9.97153C25.9237 9.97153 25.6773 10.0209 25.3816 10.1196Z" fill="#FFFF99"/>
</g>
</g>
<defs>
<filter id="filter0_d_297_2885" x="3.35156" y="-5.9729" width="30.5566" height="88.9045" filterUnits="userSpaceOnUse" color-interpolation-filters="sRGB">
<feFlood flood-opacity="0" result="BackgroundImageFix"/>
<feColorMatrix in="SourceAlpha" type="matrix" values="0 0 0 0 0 0 0 0 0 0 0 0 0 0 0 0 0 0 127 0" result="hardAlpha"/>
<feOffset dy="4"/>
<feComposite in2="hardAlpha" operator="out"/>
<feColorMatrix type="matrix" values="0 0 0 0 0 0 0 0 0 0 0 0 0 0 0 0 0 0 0.25 0"/>
<feBlend mode="normal" in2="BackgroundImageFix" result="effect1_dropShadow_297_2885"/>
<feBlend mode="normal" in="SourceGraphic" in2="effect1_dropShadow_297_2885" result="shape"/>
</filter>
<filter id="filter1_d_297_2885" x="20.248" y="4.44287" width="42.7461" height="53.8584" filterUnits="userSpaceOnUse" color-interpolation-filters="sRGB">
<feFlood flood-opacity="0" result="BackgroundImageFix"/>
<feColorMatrix in="SourceAlpha" type="matrix" values="0 0 0 0 0 0 0 0 0 0 0 0 0 0 0 0 0 0 127 0" result="hardAlpha"/>
<feOffset dy="4"/>
<feGaussianBlur stdDeviation="2"/>
<feComposite in2="hardAlpha" operator="out"/>
<feColorMatrix type="matrix" values="0 0 0 0 0 0 0 0 0 0 0 0 0 0 0 0 0 0 0.25 0"/>
<feBlend mode="normal" in2="BackgroundImageFix" result="effect1_dropShadow_297_2885"/>
<feBlend mode="normal" in="SourceGraphic" in2="effect1_dropShadow_297_2885" result="shape"/>
</filter>
</defs>
</svg>
